# Blender 3.3.6
# www.blender.org
mtllib Polaroid.mtl
o Cube
v 0.072021 -1.146142 0.815451
v 0.072021 1.038771 0.815451
v 0.072021 -1.146142 -0.834377
v 0.072021 1.038771 -0.834377
v 0.076358 -1.146142 0.815451
v 0.076358 1.038771 0.815451
v 0.076358 -1.146142 -0.834377
v 0.076358 1.038771 -0.834377
vn -1.0000 -0.0000 -0.0000
vn 1.0000 -0.0000 -0.0000
vt 0.917844 0.056250
vt 0.917844 0.950000
vt 0.079208 0.056250
vt 0.079208 0.950000
vt 0.079208 0.056250
vt 0.079208 0.950000
vt 0.917844 0.056250
vt 0.917844 0.950000
s 0
usemtl Material.001
f 7/7/2 8/8/2 6/6/2 5/5/2
usemtl Material.002
f 1/1/1 2/2/1 4/4/1 3/3/1
