# Blender 3.3.6
# www.blender.org
mtllib key2.mtl
o Cylinder.002
v -0.838347 -0.031956 -0.239876
v 2.863553 -0.012728 -0.239623
v 2.863553 -0.059099 -0.235056
v -0.838347 -0.121549 -0.214405
v 2.863553 -0.128933 -0.210459
v -0.838347 -0.180799 -0.170006
v 2.863553 -0.180799 -0.170006
v -0.838347 -0.221252 -0.118140
v 2.863553 -0.225199 -0.110756
v -0.838347 -0.245850 -0.048305
v 2.863553 -0.245850 -0.048305
v -0.838347 -0.250417 -0.001934
v 2.863553 -0.250417 -0.001934
v -0.838347 -0.245850 0.044436
v 2.863553 -0.245850 0.044436
v -0.838347 -0.225199 0.106887
v 2.863553 -0.221252 0.114271
v -0.838347 -0.180799 0.166137
v 2.863553 -0.180799 0.166137
v -0.838347 -0.128933 0.206590
v 2.863553 -0.121549 0.210536
v -0.838347 -0.059099 0.231187
v -0.838347 -0.012728 0.235755
v 2.863553 -0.031956 0.236007
v -0.838347 0.033643 0.231187
v 2.863553 0.033643 0.231187
v -0.838347 0.096093 0.210536
v 2.863553 0.103477 0.206590
v -0.838347 0.155344 0.166137
v 2.863553 0.155344 0.166137
v -0.838347 0.195796 0.114271
v 2.863553 0.199743 0.106887
v -0.838347 0.220394 0.044436
v -0.838347 0.224961 -0.001934
v 2.863553 0.225214 0.017294
v -0.838347 0.220394 -0.048305
v 2.863553 0.220394 -0.048305
v -0.838347 0.199743 -0.110756
v 2.863553 0.195796 -0.118140
v -0.838347 0.155344 -0.170006
v 2.863553 0.155344 -0.170006
v -0.838347 0.103477 -0.210459
v 2.863553 0.096093 -0.214405
v -0.838347 0.033643 -0.235056
v 2.863553 0.033643 -0.235056
v 1.645782 -0.086383 0.712001
v 1.645782 0.042237 0.712001
v 1.645782 -0.086383 0.015875
v 1.645782 0.042237 0.015875
v 2.030253 -0.086383 0.712001
v 2.030253 0.042237 0.712001
v 2.030253 -0.086383 0.015875
v 2.030253 0.042237 0.015875
v 2.157140 -0.084289 0.707509
v 2.157140 0.044330 0.707509
v 2.157140 -0.084289 0.011383
v 2.157140 0.044330 0.011383
v 2.681088 -0.084289 0.707509
v 2.681088 0.044330 0.707509
v 2.681088 -0.084289 0.011383
v 2.681088 0.044330 0.011383
v 2.964495 -0.041454 -0.129575
v 2.964495 -0.017185 -0.131965
v 2.964495 -0.078002 -0.116701
v 2.964495 -0.105147 -0.095530
v 2.964495 -0.139192 -0.031836
v 2.964495 -0.128384 -0.064521
v 2.964495 -0.141582 -0.007568
v 2.964495 -0.139192 0.016701
v 2.964495 -0.126319 0.053250
v 2.964495 -0.105147 0.080395
v 2.964495 0.007084 0.114440
v 2.964495 -0.027249 0.116962
v 2.964495 0.043632 0.101566
v 2.964495 0.070777 0.080395
v 2.964495 0.107345 0.002496
v 2.964495 0.094014 0.049385
v 2.964495 0.104822 -0.031836
v 2.964495 0.091949 -0.068385
v 2.964495 0.070777 -0.095530
v 2.964495 0.007084 -0.129575
v 2.964495 0.039768 -0.118767
v 2.964495 -0.074138 0.103632
v -0.652695 0.229464 0.675586
v -0.652695 0.229464 -0.675586
v -2.003868 0.229464 -0.675586
v -2.003868 0.229464 0.675586
v -2.167334 0.371979 -0.839053
v -0.489229 0.371979 -0.839053
v -2.167334 0.371979 0.839053
v -0.489229 0.371979 0.839053
v -0.328282 0.265530 -1.000000
v -0.328282 -0.284813 -1.000000
v -0.328282 0.265530 1.000000
v -0.328282 -0.284813 1.000000
v -2.328281 0.265530 -1.000000
v -2.328281 -0.284813 -1.000000
v -2.328281 0.265530 1.000000
v -2.328281 -0.284813 1.000000
vn -0.0006 -0.0980 0.9952
vn -0.0006 0.9952 0.0980
vn 0.0006 -0.0980 -0.9952
vn -0.0002 -0.6069 -0.7948
vn 0.0002 -0.7948 -0.6069
vn -0.0002 -0.9462 -0.3236
vn -0.0000 -0.9952 -0.0980
vn -0.0000 -0.9952 0.0980
vn 0.0002 -0.9462 0.3236
vn -0.0002 -0.7948 0.6069
vn 0.0002 -0.6069 0.7948
vn 0.0003 -0.2996 0.9541
vn 0.0002 0.0835 0.9965
vn -0.0003 -0.2996 -0.9541
vn 0.0002 0.3236 0.9462
vn -0.0002 0.6069 0.7948
vn 0.0002 0.7948 0.6069
vn 0.0003 0.9541 0.2996
vn 0.0002 0.9965 -0.0835
vn 0.0002 0.9462 -0.3236
vn -0.0002 0.7948 -0.6069
vn 0.0002 0.6069 -0.7948
vn -0.0002 0.3236 -0.9462
vn 0.7298 -0.6804 -0.0670
vn -0.0002 0.0835 -0.9965
vn -1.0000 -0.0000 -0.0000
vn -0.0000 -0.0000 -1.0000
vn 1.0000 -0.0000 -0.0000
vn -0.0000 -0.0000 1.0000
vn -0.0000 -1.0000 -0.0000
vn -0.0000 1.0000 -0.0000
vn 0.7217 -0.4257 -0.5458
vn 0.7292 0.0671 -0.6810
vn 0.7264 -0.0674 -0.6839
vn 0.7642 0.3966 0.5085
vn 0.7443 0.5266 -0.4107
vn 0.7377 0.4048 -0.5402
vn 0.7440 -0.5269 0.4110
vn 0.7609 0.0475 0.6471
vn 0.7557 0.6532 -0.0480
vn 0.7628 0.5174 0.3877
vn 0.7333 -0.6767 0.0666
vn 0.7538 -0.1797 0.6321
vn 0.7256 -0.6533 -0.2160
vn 0.7486 -0.3976 0.5306
vn 0.7221 -0.2298 -0.6525
vn 0.7583 0.6270 0.1783
vn 0.7321 0.2139 -0.6467
vn 0.7624 0.2150 0.6103
vn 0.7501 0.6238 -0.2197
vn 0.7216 -0.5541 -0.4152
vn 0.7362 -0.6383 0.2248
vn -0.6572 0.7538 -0.0000
vn -0.0000 0.7538 0.6572
vn -0.0000 0.7538 -0.6572
vn -0.5516 0.8341 -0.0000
vn -0.0000 0.8341 0.5516
vn -0.0000 0.8341 -0.5516
vn 0.6572 0.7538 -0.0000
vn 0.5516 0.8341 -0.0000
vt 0.902043 0.000000
vt 0.527212 0.586269
vt 0.905641 0.692647
vt 0.627030 0.521815
vt 0.896966 0.692647
vt 0.621143 0.515384
vt 0.885286 0.000000
vt 0.510939 0.592508
vt 0.883906 0.692647
vt 0.609624 0.507688
vt 0.874211 0.000000
vt 0.497086 0.592508
vt 0.874211 0.692647
vt 0.597748 0.504461
vt 0.864507 0.000000
vt 0.485209 0.589280
vt 0.863125 0.692647
vt 0.583894 0.504461
vt 0.851441 0.000000
vt 0.473691 0.581584
vt 0.851441 0.692647
vt 0.572227 0.508376
vt 0.842764 0.000000
vt 0.467804 0.575153
vt 0.842764 0.692647
vt 0.564771 0.512895
vt 0.834088 0.000000
vt 0.463285 0.567698
vt 0.834088 0.692647
vt 0.558340 0.518781
vt 0.822403 0.000000
vt 0.459370 0.556030
vt 0.821022 0.692647
vt 0.550644 0.530300
vt 0.811317 0.000000
vt 0.748423 0.692647
vt 0.459370 0.542177
vt 0.811317 0.692647
vt 0.748423 0.000000
vt 0.547417 0.542177
vt 0.758117 0.692647
vt 0.462597 0.530300
vt 0.759497 0.000000
vt 0.547417 0.556030
vt 0.771177 0.692647
vt 0.470294 0.518782
vt 0.779852 0.692647
vt 0.476724 0.512895
vt 0.776254 0.000000
vt 0.553655 0.572302
vt 0.788529 0.692647
vt 0.484180 0.508376
vt 0.788529 0.000000
vt 0.561737 0.581584
vt 0.800220 0.692647
vt 0.495848 0.504461
vt 0.801602 0.000000
vt 0.573256 0.589280
vt 0.811317 0.692647
vt 1.000000 0.000000
vt 0.509701 0.504461
vt 0.811317 0.000000
vt 1.000000 0.692647
vt 0.585132 0.592508
vt 0.990306 0.000000
vt 0.521577 0.507688
vt 0.988925 0.692647
vt 0.598986 0.592508
vt 0.977246 0.000000
vt 0.533096 0.515384
vt 0.968571 0.000000
vt 0.538983 0.521815
vt 0.972169 0.692647
vt 0.615258 0.586269
vt 0.959894 0.000000
vt 0.543502 0.529271
vt 0.959894 0.692647
vt 0.624540 0.578187
vt 0.948203 0.000000
vt 0.547417 0.540939
vt 0.946821 0.692647
vt 0.632236 0.566668
vt 0.937106 0.000000
vt 0.547417 0.554792
vt 0.937106 0.692647
vt 0.635464 0.554792
vt 0.927391 0.000000
vt 0.544190 0.566668
vt 0.926008 0.692647
vt 0.635464 0.540939
vt 0.914318 0.000000
vt 0.536493 0.578187
vt 0.914318 0.692647
vt 0.631549 0.529271
vt 0.308917 0.504461
vt 0.555632 0.592508
vt 0.377446 0.634710
vt 0.332983 0.504461
vt 0.531566 0.592508
vt 0.449383 0.504461
vt 0.308917 0.634710
vt 0.507501 0.592508
vt 0.377446 0.504461
vt 0.332983 0.634710
vt 0.531566 0.592508
vt 0.449383 0.374212
vt 0.332983 0.634710
vt 0.555632 0.664444
vt 0.449383 0.634710
vt 0.357048 0.634710
vt 0.531566 0.664444
vt 0.377446 0.504461
vt 0.507501 0.664444
vt 0.332983 0.504461
vt 0.449383 0.504461
vt 0.531566 0.664444
vt 0.357048 0.504461
vt 0.377446 0.374212
vt 0.332983 0.374211
vt 0.483435 0.690542
vt 0.547417 0.504461
vt 0.357048 0.374211
vt 0.507501 0.690542
vt 0.547417 0.504461
vt 0.332983 0.504461
vt 0.459370 0.592508
vt 0.547417 0.374212
vt 0.357048 0.504461
vt 0.483435 0.592508
vt 0.547417 0.374212
vt 0.308917 0.504461
vt 0.483435 0.592508
vt 0.645451 0.504461
vt 0.332983 0.504461
vt 0.507501 0.592508
vt 0.449383 0.504461
vt 0.459370 0.690542
vt 0.308917 0.374212
vt 0.645451 0.374212
vt 0.483435 0.690542
vt 0.332983 0.374212
vt 0.449383 0.374212
vt 0.607329 0.529862
vt 0.610410 0.533227
vt 0.601300 0.525834
vt 0.595085 0.524145
vt 0.581728 0.526193
vt 0.587834 0.524145
vt 0.577826 0.528559
vt 0.574460 0.531639
vt 0.570432 0.537668
vt 0.568743 0.543884
vt 0.576238 0.564508
vt 0.572008 0.559650
vt 0.582267 0.568536
vt 0.588482 0.570225
vt 0.604249 0.566960
vt 0.595733 0.570225
vt 0.609107 0.562730
vt 0.613135 0.556702
vt 0.614824 0.550486
vt 0.612775 0.537129
vt 0.614824 0.543236
vt 0.568743 0.551134
vt 0.434921 0.060700
vt 0.687733 0.060700
vt 0.687733 0.313512
vt 0.434920 0.313512
vt 0.718281 0.344098
vt 0.718281 0.030114
vt 0.404298 0.344097
vt 0.404298 0.030114
vt 0.748423 0.000000
vt 0.000000 0.748423
vt 0.308917 0.748423
vt 0.374212 0.374212
vt 0.102972 0.748423
vt 0.205945 0.748423
vt 0.374212 0.000000
vt 0.645451 0.748423
vt 0.000000 0.374212
vt 0.000000 0.374212
vt 0.748423 0.748423
vt 0.102972 0.374212
vt 0.748423 0.374212
vt 0.308917 0.374212
vt 0.102972 0.374212
vt 0.374212 0.000000
vt 0.205945 0.374212
vt 0.374212 0.374212
vt 0.645451 0.374212
vt 0.102972 0.748423
vt 0.000000 0.000000
vt 0.748423 0.374212
vt 0.205945 0.748423
s 0
usemtl Material.001
f 24/49/1 23/47/1 22/45/1
f 35/73/2 34/71/2 33/69/2
f 2/3/3 3/5/3 1/1/3
f 6/11/4 4/7/4 5/9/4 7/13/4
f 8/15/5 6/11/5 7/13/5 9/17/5
f 10/19/6 8/15/6 9/17/6 11/21/6
f 12/23/7 10/19/7 11/21/7 13/25/7
f 14/27/8 12/23/8 13/25/8 15/29/8
f 16/31/9 14/27/9 15/29/9 17/33/9
f 18/35/10 16/31/10 17/33/10 19/38/10
f 20/41/11 18/36/11 19/39/11 21/43/11
f 22/45/12 20/41/12 21/43/12 24/49/12
f 25/51/13 23/47/13 24/49/13 26/53/13
f 4/7/14 1/1/14 3/5/14 5/9/14
f 27/55/15 25/51/15 26/53/15 28/57/15
f 29/59/16 27/55/16 28/57/16 30/62/16
f 31/65/17 29/60/17 30/63/17 32/67/17
f 33/69/18 31/65/18 32/67/18 35/73/18
f 36/75/19 34/71/19 35/73/19 37/77/19
f 38/79/20 36/75/20 37/77/20 39/81/20
f 40/83/21 38/79/21 39/81/21 41/85/21
f 42/87/22 40/83/22 41/85/22 43/89/22
f 44/91/23 42/87/23 43/89/23 45/93/23
f 13/26/24 11/22/24 66/147/24 68/149/24
f 1/1/25 44/91/25 45/93/25 2/3/25
f 22/46/26 23/48/26 25/52/26 27/56/26 29/61/26 31/66/26 33/70/26 34/72/26 36/76/26 38/80/26 40/84/26 42/88/26 44/92/26 1/2/26 4/8/26 6/12/26 8/16/26 10/20/26 12/24/26 14/28/26 16/32/26 18/37/26 20/42/26
f 46/95/26 47/98/26 49/104/26 48/101/26
f 48/102/27 49/105/27 53/116/27 52/113/27
f 52/114/28 53/117/28 51/110/28 50/107/28
f 50/108/29 51/111/29 47/99/29 46/96/29
f 48/103/30 52/115/30 50/109/30 46/97/30
f 53/118/31 49/106/31 47/100/31 51/112/31
f 54/119/26 55/122/26 57/128/26 56/125/26
f 56/126/27 57/129/27 61/140/27 60/137/27
f 60/138/28 61/141/28 59/134/28 58/131/28
f 58/132/29 59/135/29 55/123/29 54/120/29
f 56/127/30 60/139/30 58/133/30 54/121/30
f 61/142/31 57/130/31 55/124/31 59/136/31
f 67/148/28 65/146/28 64/145/28 62/143/28 63/144/28 81/162/28 82/163/28 80/161/28 79/160/28 78/159/28 76/157/28 77/158/28 75/156/28 74/155/28 72/153/28 73/154/28 83/164/28 71/152/28 70/151/28 69/150/28 68/149/28 66/147/28
f 7/14/32 5/10/32 64/145/32 65/146/32
f 2/4/33 45/94/33 81/162/33 63/144/33
f 3/6/34 2/4/34 63/144/34 62/143/34
f 30/64/35 28/58/35 74/155/35 75/156/35
f 41/86/36 39/82/36 79/160/36 80/161/36
f 43/90/37 41/86/37 80/161/37 82/163/37
f 19/40/38 17/34/38 70/151/38 71/152/38
f 26/54/39 24/50/39 73/154/39 72/153/39
f 37/78/40 35/74/40 76/157/40 78/159/40
f 32/68/41 30/64/41 75/156/41 77/158/41
f 15/30/42 13/26/42 68/149/42 69/150/42
f 24/50/43 21/44/43 83/164/43 73/154/43
f 11/22/44 9/18/44 67/148/44 66/147/44
f 21/44/45 19/40/45 71/152/45 83/164/45
f 5/10/46 3/6/46 62/143/46 64/145/46
f 35/74/47 32/68/47 77/158/47 76/157/47
f 45/94/48 43/90/48 82/163/48 81/162/48
f 28/58/49 26/54/49 72/153/49 74/155/49
f 39/82/50 37/78/50 78/159/50 79/160/50
f 9/18/51 7/14/51 65/146/51 67/148/51
f 17/34/52 15/30/52 69/150/52 70/151/52
f 91/172/53 89/170/53 85/166/53 84/165/53
f 89/170/54 88/169/54 86/167/54 85/166/54
f 90/171/55 91/172/55 84/165/55 87/168/55
f 85/166/31 86/167/31 87/168/31 84/165/31
f 96/185/56 98/190/56 90/171/56 88/169/56
f 98/190/57 94/179/57 91/172/57 90/171/57
f 92/173/58 96/185/58 88/169/58 89/170/58
f 88/169/59 90/171/59 87/168/59 86/167/59
f 94/179/60 92/173/60 89/170/60 91/172/60
f 97/188/30 93/176/30 95/182/30 99/193/30
f 95/183/29 94/180/29 98/191/29 99/194/29
f 93/177/28 92/174/28 94/181/28 95/184/28
f 97/189/27 96/186/27 92/175/27 93/178/27
f 99/195/26 98/192/26 96/187/26 97/189/26
