# Blender 3.3.6
# www.blender.org
mtllib key3.mtl
o Cylinder.002
v -0.838347 -0.031956 -0.239876
v 2.863553 -0.012728 -0.239623
v 2.863553 -0.059099 -0.235056
v -0.838347 -0.121549 -0.214405
v 2.863553 -0.128933 -0.210459
v -0.838347 -0.180799 -0.170006
v 2.863553 -0.180799 -0.170006
v -0.838347 -0.221252 -0.118140
v 2.863553 -0.225199 -0.110756
v -0.838347 -0.245850 -0.048305
v 2.863553 -0.245850 -0.048305
v -0.838347 -0.250417 -0.001934
v 2.863553 -0.250417 -0.001934
v -0.838347 -0.245850 0.044436
v 2.863553 -0.245850 0.044436
v -0.838347 -0.225199 0.106887
v 2.863553 -0.221252 0.114271
v -0.838347 -0.180799 0.166137
v 2.863553 -0.180799 0.166137
v -0.838347 -0.128933 0.206590
v 2.863553 -0.121549 0.210536
v -0.838347 -0.059099 0.231187
v -0.838347 -0.012728 0.235755
v 2.863553 -0.031956 0.236007
v -0.838347 0.033643 0.231187
v 2.863553 0.033643 0.231187
v -0.838347 0.096093 0.210536
v 2.863553 0.103477 0.206590
v -0.838347 0.155344 0.166137
v 2.863553 0.155344 0.166137
v -0.838347 0.195796 0.114271
v 2.863553 0.199743 0.106887
v -0.838347 0.220394 0.044436
v -0.838347 0.224961 -0.001934
v 2.863553 0.225214 0.017294
v -0.838347 0.220394 -0.048305
v 2.863553 0.220394 -0.048305
v -0.838347 0.199743 -0.110756
v 2.863553 0.195796 -0.118140
v -0.838347 0.155344 -0.170006
v 2.863553 0.155344 -0.170006
v -0.838347 0.103477 -0.210459
v 2.863553 0.096093 -0.214405
v -0.838347 0.033643 -0.235056
v 2.863553 0.033643 -0.235056
v 1.645782 -0.086383 0.712001
v 1.645782 0.042237 0.712001
v 1.645782 -0.086383 0.015875
v 1.645782 0.042237 0.015875
v 2.030253 -0.086383 0.712001
v 2.030253 0.042237 0.712001
v 2.030253 -0.086383 0.015875
v 2.030253 0.042237 0.015875
v 2.157140 -0.084289 0.707509
v 2.157140 0.044330 0.707509
v 2.157140 -0.084289 0.011383
v 2.157140 0.044330 0.011383
v 2.681088 -0.084289 0.707509
v 2.681088 0.044330 0.707509
v 2.681088 -0.084289 0.011383
v 2.681088 0.044330 0.011383
v 2.964495 -0.041454 -0.129575
v 2.964495 -0.017185 -0.131965
v 2.964495 -0.078002 -0.116701
v 2.964495 -0.105147 -0.095530
v 2.964495 -0.139192 -0.031836
v 2.964495 -0.128384 -0.064521
v 2.964495 -0.141582 -0.007568
v 2.964495 -0.139192 0.016701
v 2.964495 -0.126319 0.053250
v 2.964495 -0.105147 0.080395
v 2.964495 0.007084 0.114440
v 2.964495 -0.027249 0.116962
v 2.964495 0.043632 0.101566
v 2.964495 0.070777 0.080395
v 2.964495 0.107345 0.002496
v 2.964495 0.094014 0.049385
v 2.964495 0.104822 -0.031836
v 2.964495 0.091949 -0.068385
v 2.964495 0.070777 -0.095530
v 2.964495 0.007084 -0.129575
v 2.964495 0.039768 -0.118767
v 2.964495 -0.074138 0.103632
v -1.278901 0.228826 0.955350
v -0.632799 0.228826 -0.011876
v -1.302654 0.228826 -0.955350
v -1.969600 0.228826 0.011877
v -1.305528 0.367005 -1.186508
v -0.500939 0.367005 -0.014750
v -2.087562 0.367005 0.014750
v -1.276027 0.367005 1.186508
v -0.346249 0.260556 -0.017579
v -0.346249 -0.296926 -0.017579
v -1.273198 0.260556 1.414104
v -1.273198 -0.296926 1.414104
v -1.308357 0.260556 -1.414104
v -1.308357 -0.296926 -1.414104
v -2.264567 0.260556 0.017580
v -2.264567 -0.296926 0.017580
vn -0.0006 -0.0980 0.9952
vn -0.0006 0.9952 0.0980
vn 0.0006 -0.0980 -0.9952
vn -0.0002 -0.6069 -0.7948
vn 0.0002 -0.7948 -0.6069
vn -0.0002 -0.9462 -0.3236
vn -0.0000 -0.9952 -0.0980
vn -0.0000 -0.9952 0.0980
vn 0.0002 -0.9462 0.3236
vn -0.0002 -0.7948 0.6069
vn 0.0002 -0.6069 0.7948
vn 0.0003 -0.2996 0.9541
vn 0.0002 0.0835 0.9965
vn -0.0003 -0.2996 -0.9541
vn 0.0002 0.3236 0.9462
vn -0.0002 0.6069 0.7948
vn 0.0002 0.7948 0.6069
vn 0.0003 0.9541 0.2996
vn 0.0002 0.9965 -0.0835
vn 0.0002 0.9462 -0.3236
vn -0.0002 0.7948 -0.6069
vn 0.0002 0.6069 -0.7948
vn -0.0002 0.3236 -0.9462
vn 0.7298 -0.6804 -0.0670
vn -0.0002 0.0835 -0.9965
vn -1.0000 -0.0000 -0.0000
vn -0.0000 -0.0000 -1.0000
vn 1.0000 -0.0000 -0.0000
vn -0.0000 -0.0000 1.0000
vn -0.0000 -1.0000 -0.0000
vn -0.0000 1.0000 -0.0000
vn 0.7217 -0.4257 -0.5458
vn 0.7292 0.0671 -0.6810
vn 0.7264 -0.0674 -0.6839
vn 0.7642 0.3966 0.5085
vn 0.7443 0.5266 -0.4107
vn 0.7377 0.4048 -0.5402
vn 0.7440 -0.5269 0.4110
vn 0.7609 0.0475 0.6471
vn 0.7557 0.6532 -0.0480
vn 0.7628 0.5174 0.3877
vn 0.7333 -0.6767 0.0666
vn 0.7538 -0.1797 0.6321
vn 0.7256 -0.6533 -0.2160
vn 0.7486 -0.3976 0.5306
vn 0.7221 -0.2298 -0.6525
vn 0.7583 0.6270 0.1783
vn 0.7321 0.2139 -0.6467
vn 0.7624 0.2150 0.6103
vn 0.7501 0.6238 -0.2197
vn 0.7216 -0.5541 -0.4152
vn 0.7362 -0.6383 0.2248
vn -0.6340 0.6523 -0.4155
vn -0.6198 0.6551 0.4320
vn 0.6274 0.6386 -0.4456
vn -0.5121 0.7896 -0.3381
vn -0.5011 0.7907 0.3518
vn 0.5272 0.7685 -0.3626
vn 0.6422 0.6352 0.4291
vn 0.5391 0.7668 0.3485
vn -0.8154 -0.0000 0.5789
vn 0.8394 -0.0000 0.5435
vn 0.8235 -0.0000 -0.5673
vn -0.8316 -0.0000 -0.5554
vt 0.898132 0.000000
vt 0.225248 0.665190
vt 0.901904 0.726164
vt 0.892809 0.726164
vt 0.880566 0.000000
vt 0.218708 0.648130
vt 0.879118 0.726164
vt 0.868957 0.000000
vt 0.803019 0.000000
vt 0.218708 0.633606
vt 0.868957 0.726164
vt 0.803019 0.726164
vt 0.792845 0.000000
vt 0.222091 0.621155
vt 0.791397 0.726164
vt 0.779147 0.000000
vt 0.230160 0.609079
vt 0.779147 0.726164
vt 0.770051 0.000000
vt 0.236902 0.602908
vt 0.770051 0.726164
vt 0.385955 0.603624
vt 0.760954 0.000000
vt 0.244718 0.598170
vt 0.760954 0.726164
vt 0.379196 0.598831
vt 0.748704 0.000000
vt 0.256950 0.594066
vt 0.747256 0.726164
vt 0.366720 0.594222
vt 0.737082 0.000000
vt 0.934895 0.726164
vt 0.271474 0.594066
vt 0.737082 0.726164
vt 0.934895 0.000000
vt 0.354580 0.594066
vt 0.946198 0.726164
vt 0.283925 0.597449
vt 0.947750 0.000000
vt 0.340996 0.597557
vt 0.960488 0.726164
vt 0.296001 0.605518
vt 0.969611 0.726164
vt 0.302173 0.612260
vt 0.965894 0.000000
vt 0.325997 0.607747
vt 0.978450 0.726164
vt 0.306911 0.620076
vt 0.978450 0.000000
vt 0.318136 0.617974
vt 0.989904 0.726164
vt 0.311015 0.632309
vt 0.991211 0.000000
vt 0.312357 0.631155
vt 1.000000 0.726163
vt 0.868957 0.000000
vt 0.311015 0.646832
vt 1.000000 0.000000
vt 0.868957 0.726164
vt 0.311015 0.643560
vt 0.858794 0.000000
vt 0.307632 0.659283
vt 0.857347 0.726164
vt 0.313141 0.657080
vt 0.845102 0.000000
vt 0.299563 0.671359
vt 0.836007 0.000000
vt 0.292821 0.677531
vt 0.839779 0.726164
vt 0.321755 0.671390
vt 0.826910 0.000000
vt 0.285004 0.682269
vt 0.331105 0.678412
vt 0.826910 0.726164
vt 0.814654 0.000000
vt 0.272772 0.686373
vt 0.813205 0.726164
vt 0.803019 0.000000
vt 0.934895 0.000000
vt 0.258248 0.686373
vt 0.803020 0.726164
vt 0.934895 0.726164
vt 0.924708 0.000000
vt 0.245797 0.682990
vt 0.923258 0.726164
vt 0.911001 0.000000
vt 0.233721 0.674921
vt 0.911002 0.726164
vt 0.627726 0.554781
vt 0.474723 0.669483
vt 0.499681 0.594066
vt 0.652956 0.554781
vt 0.499634 0.669483
vt 0.499681 0.594066
vt 0.627726 0.691332
vt 0.449493 0.594065
vt 0.499681 0.457514
vt 0.652956 0.691332
vt 0.474723 0.594065
vt 0.499681 0.457514
vt 0.652956 0.678570
vt 0.474723 0.594066
vt 0.575098 0.594066
vt 0.678185 0.678485
vt 0.499634 0.594066
vt 0.424263 0.594066
vt 0.449493 0.669483
vt 0.652956 0.554865
vt 0.575098 0.457514
vt 0.474723 0.669483
vt 0.678185 0.554780
vt 0.424263 0.457514
vt 0.575098 0.457514
vt 0.399351 0.696843
vt 0.218708 0.594066
vt 0.600328 0.457514
vt 0.424263 0.696843
vt 0.424263 0.594066
vt 0.575098 0.594066
vt 0.424263 0.594066
vt 0.218708 0.457514
vt 0.600328 0.594066
vt 0.449493 0.594066
vt 0.424263 0.457514
vt 0.678186 0.678570
vt 0.399351 0.594066
vt 0.321485 0.594066
vt 0.703415 0.678485
vt 0.424263 0.594066
vt 0.321485 0.594066
vt 0.424263 0.696843
vt 0.678186 0.554865
vt 0.321485 0.457514
vt 0.449493 0.696843
vt 0.703415 0.554780
vt 0.321485 0.457514
vt 0.382228 0.654879
vt 0.896304 0.745964
vt 0.379401 0.658734
vt 0.901064 0.745964
vt 0.385253 0.647980
vt 0.889139 0.745964
vt 0.385955 0.641488
vt 0.883821 0.745964
vt 0.788410 0.745964
vt 0.381896 0.628968
vt 0.775916 0.745964
vt 0.384843 0.634412
vt 0.782327 0.745964
vt 0.771156 0.745964
vt 0.378978 0.625756
vt 0.375441 0.623248
vt 0.368912 0.620836
vt 0.362558 0.620754
vt 0.343485 0.633266
vt 0.347599 0.627914
vt 0.340460 0.640165
vt 0.339758 0.646657
vt 0.345379 0.661222
vt 0.340870 0.653733
vt 0.350272 0.664897
vt 0.830109 0.745965
vt 0.356801 0.667309
vt 0.822936 0.745965
vt 0.363155 0.667391
vt 0.817606 0.745965
vt 0.918330 0.745964
vt 0.375938 0.662025
vt 0.905825 0.745964
vt 0.370264 0.665564
vt 0.912240 0.745964
vt 0.355448 0.622581
vt 0.364779 0.383294
vt 0.364762 0.155126
vt 0.576820 0.074205
vt 0.600439 0.498325
vt 0.580237 0.304643
vt 0.600484 0.725605
vt 0.602453 0.036842
vt 0.627726 0.457513
vt 0.343545 0.140323
vt 0.599145 0.317995
vt 0.627726 0.735942
vt 0.339105 0.420720
vt 0.318636 0.122984
vt 0.109353 0.457622
vt 0.218708 0.646496
vt 0.004773 0.334529
vt 0.000000 0.457514
vt 0.109353 0.646239
vt 0.313863 0.457513
vt 0.737082 0.000000
vt 0.109353 0.789037
vt 0.000000 0.000000
vt 0.627726 0.000000
vt 0.000000 0.788928
vt 0.627726 0.000000
vt 0.218708 0.457771
vt 0.737082 0.554780
vt 0.313863 0.457514
vt 0.109353 0.457514
vt 0.627726 0.554780
vt 0.627726 0.337717
vt 0.737082 0.273942
vt 0.313863 0.119797
vt 0.627726 0.273942
s 0
usemtl Material.001
f 24/45/1 23/43/1 22/41/1
f 35/69/2 34/67/2 33/65/2
f 2/3/3 3/4/3 1/1/3
f 6/8/4 4/5/4 5/7/4 7/11/4
f 8/13/5 6/9/5 7/12/5 9/15/5
f 10/16/6 8/13/6 9/15/6 11/18/6
f 12/19/7 10/16/7 11/18/7 13/21/7
f 14/23/8 12/19/8 13/21/8 15/25/8
f 16/27/9 14/23/9 15/25/9 17/29/9
f 18/31/10 16/27/10 17/29/10 19/34/10
f 20/37/11 18/32/11 19/35/11 21/39/11
f 22/41/12 20/37/12 21/39/12 24/45/12
f 25/47/13 23/43/13 24/45/13 26/49/13
f 4/5/14 1/1/14 3/4/14 5/7/14
f 27/51/15 25/47/15 26/49/15 28/53/15
f 29/55/16 27/51/16 28/53/16 30/58/16
f 31/61/17 29/56/17 30/59/17 32/63/17
f 33/65/18 31/61/18 32/63/18 35/69/18
f 36/71/19 34/67/19 35/69/19 37/74/19
f 38/75/20 36/71/20 37/74/20 39/77/20
f 40/78/21 38/75/21 39/77/21 41/81/21
f 42/83/22 40/79/22 41/82/22 43/85/22
f 44/86/23 42/83/23 43/85/23 45/88/23
f 13/21/24 11/18/24 66/147/24 68/150/24
f 1/1/25 44/86/25 45/88/25 2/3/25
f 22/42/26 23/44/26 25/48/26 27/52/26 29/57/26 31/62/26 33/66/26 34/68/26 36/72/26 38/76/26 40/80/26 42/84/26 44/87/26 1/2/26 4/6/26 6/10/26 8/14/26 10/17/26 12/20/26 14/24/26 16/28/26 18/33/26 20/38/26
f 46/89/26 47/92/26 49/98/26 48/95/26
f 48/96/27 49/99/27 53/110/27 52/107/27
f 52/108/28 53/111/28 51/104/28 50/101/28
f 50/102/29 51/105/29 47/93/29 46/90/29
f 48/97/30 52/109/30 50/103/30 46/91/30
f 53/112/31 49/100/31 47/94/31 51/106/31
f 54/113/26 55/116/26 57/122/26 56/119/26
f 56/120/27 57/123/27 61/134/27 60/131/27
f 60/132/28 61/135/28 59/128/28 58/125/28
f 58/126/29 59/129/29 55/117/29 54/114/29
f 56/121/30 60/133/30 58/127/30 54/115/30
f 61/136/31 57/124/31 55/118/31 59/130/31
f 67/148/28 65/143/28 64/141/28 62/137/28 63/139/28 81/168/28 82/170/28 80/165/28 79/163/28 78/161/28 76/159/28 77/160/28 75/158/28 74/157/28 72/155/28 73/156/28 83/172/28 71/154/28 70/153/28 69/152/28 68/151/28 66/146/28
f 7/11/32 5/7/32 64/142/32 65/144/32
f 2/3/33 45/88/33 81/169/33 63/140/33
f 3/4/34 2/3/34 63/140/34 62/138/34
f 30/60/35 28/54/35 74/157/35 75/158/35
f 41/81/36 39/77/36 79/164/36 80/166/36
f 43/85/37 41/82/37 80/167/37 82/171/37
f 19/36/38 17/30/38 70/153/38 71/154/38
f 26/50/39 24/46/39 73/156/39 72/155/39
f 37/73/40 35/70/40 76/159/40 78/161/40
f 32/64/41 30/60/41 75/158/41 77/160/41
f 15/26/42 13/22/42 68/151/42 69/152/42
f 24/46/43 21/40/43 83/172/43 73/156/43
f 11/18/44 9/15/44 67/149/44 66/147/44
f 21/40/45 19/36/45 71/154/45 83/172/45
f 5/7/46 3/4/46 62/138/46 64/142/46
f 35/70/47 32/64/47 77/160/47 76/159/47
f 45/88/48 43/85/48 82/171/48 81/169/48
f 28/54/49 26/50/49 72/155/49 74/157/49
f 39/77/50 37/74/50 78/162/50 79/164/50
f 9/15/51 7/12/51 65/145/51 67/149/51
f 17/30/52 15/26/52 69/152/52 70/153/52
f 91/184/53 89/181/53 85/174/53 84/173/53
f 89/181/54 88/179/54 86/175/54 85/174/54
f 90/182/55 91/184/55 84/173/55 87/177/55
f 85/174/31 86/175/31 87/177/31 84/173/31
f 96/197/56 98/203/56 90/182/56 88/179/56
f 98/203/57 94/191/57 91/184/57 90/182/57
f 92/185/58 96/197/58 88/179/58 89/181/58
f 88/180/59 90/183/59 87/178/59 86/176/59
f 94/191/60 92/185/60 89/181/60 91/184/60
f 97/200/30 93/188/30 95/194/30 99/205/30
f 95/195/61 94/192/61 98/204/61 99/206/61
f 93/189/62 92/186/62 94/193/62 95/196/62
f 97/201/63 96/198/63 92/187/63 93/190/63
f 99/206/64 98/204/64 96/199/64 97/202/64
