# Blender 3.3.6
# www.blender.org
mtllib baloon2_lp.mtl
o Cube.002
v -0.248412 0.302983 0.364951
v -0.354142 1.153907 0.470682
v -0.248412 0.302983 -0.212127
v -0.354142 1.153907 -0.317857
v 0.328666 0.302983 0.364951
v 0.434397 1.153907 0.470682
v 0.328666 0.302983 -0.212127
v 0.434397 1.153907 -0.317857
v -0.276775 0.240923 -0.092072
v -0.289940 0.209749 0.076412
v -0.276775 0.240923 0.244897
v -0.317005 0.476018 0.433545
v -0.376091 0.728445 0.492630
v -0.385147 0.980871 0.501686
v -0.425377 1.215967 0.313038
v -0.462242 1.247141 0.076412
v -0.425377 1.215967 -0.160214
v -0.385147 0.980871 -0.348862
v -0.376091 0.728445 -0.339806
v -0.317005 0.476018 -0.280720
v 0.208611 0.240923 -0.240490
v 0.040127 0.209749 -0.253655
v -0.128357 0.240923 -0.240490
v -0.196499 1.215967 -0.389092
v 0.040127 1.247141 -0.425957
v 0.276753 1.215967 -0.389092
v 0.465401 0.980871 -0.348862
v 0.456345 0.728445 -0.339806
v 0.397260 0.476018 -0.280720
v 0.357029 0.240923 0.244897
v 0.370194 0.209749 0.076412
v 0.357029 0.240923 -0.092072
v 0.505631 1.215967 -0.160214
v 0.542496 1.247141 0.076412
v 0.505632 1.215967 0.313038
v 0.465401 0.980871 0.501686
v 0.456345 0.728445 0.492630
v 0.397260 0.476018 0.433545
v -0.128357 0.240923 0.393315
v 0.040127 0.209749 0.406480
v 0.208611 0.240923 0.393315
v 0.276753 1.215967 0.541917
v 0.040127 1.247141 0.578781
v -0.196499 1.215967 0.541917
v -0.406614 0.459419 0.274828
v -0.493712 0.728445 0.303883
v -0.508653 0.997470 0.309746
v -0.434483 0.444968 0.076412
v -0.533095 0.728445 0.076412
v -0.552941 1.011922 0.076412
v -0.406614 0.459419 -0.122004
v -0.493712 0.728445 -0.151059
v -0.508653 0.997470 -0.156921
v -0.158289 0.459419 -0.370329
v -0.187344 0.728445 -0.457427
v -0.193206 0.997470 -0.472368
v 0.040127 0.444968 -0.398198
v 0.040127 0.728445 -0.496810
v 0.040127 1.011922 -0.516656
v 0.238543 0.459419 -0.370329
v 0.267598 0.728445 -0.457427
v 0.273460 0.997470 -0.472368
v 0.486868 0.459419 -0.122004
v 0.573966 0.728445 -0.151059
v 0.588907 0.997470 -0.156921
v 0.514738 0.444968 0.076412
v 0.613349 0.728445 0.076412
v 0.633195 1.011922 0.076412
v 0.486868 0.459419 0.274828
v 0.573966 0.728445 0.303883
v 0.588907 0.997470 0.309746
v 0.238543 0.459419 0.523153
v 0.267598 0.728445 0.610252
v 0.273460 0.997470 0.625192
v 0.040127 0.444968 0.551023
v 0.040127 0.728445 0.649634
v 0.040127 1.011922 0.669480
v -0.158289 0.459419 0.523153
v -0.187344 0.728445 0.610252
v -0.193206 0.997470 0.625192
v -0.124728 0.108130 -0.088443
v 0.040127 0.063168 -0.091830
v 0.204982 0.108130 -0.088443
v -0.128115 0.063168 0.076412
v 0.040127 0.014089 0.076412
v 0.208370 0.063168 0.076412
v -0.124728 0.108130 0.241268
v 0.040127 0.063168 0.244655
v 0.204982 0.108130 0.241268
v 0.307021 1.348760 -0.190482
v 0.040127 1.393722 -0.210287
v -0.226767 1.348760 -0.190482
v 0.326827 1.393722 0.076412
v 0.040127 1.442801 0.076412
v -0.246573 1.393722 0.076412
v 0.307021 1.348760 0.343306
v 0.040127 1.393722 0.363112
v -0.226767 1.348760 0.343307
vn -0.8516 -0.4147 0.3205
vn -0.9173 -0.1897 0.3500
vn -0.9809 -0.1945 -0.0000
vn -0.9035 -0.4287 -0.0000
vn -0.9246 0.1295 0.3583
vn -0.9881 0.1536 -0.0000
vn -0.9173 -0.1897 -0.3500
vn -0.8516 -0.4147 -0.3205
vn -0.9246 0.1295 -0.3583
vn -0.5900 -0.5511 0.5900
vn -0.6477 -0.4012 0.6477
vn -0.7069 -0.6226 0.3356
vn -0.6949 -0.1854 0.6949
vn -0.7033 0.1039 0.7033
vn -0.6375 0.4325 0.6375
vn -0.7442 0.5661 0.3547
vn -0.7858 0.6185 -0.0000
vn -0.7442 0.5661 -0.3547
vn -0.6375 0.4325 -0.6375
vn -0.7033 0.1039 -0.7033
vn -0.6949 -0.1854 -0.6949
vn -0.6477 -0.4012 -0.6477
vn -0.7069 -0.6226 -0.3356
vn -0.5900 -0.5511 -0.5900
vn -0.7602 -0.6496 -0.0000
vn -0.3205 -0.4147 -0.8516
vn -0.3500 -0.1897 -0.9173
vn -0.0000 -0.1945 -0.9809
vn -0.0000 -0.4287 -0.9035
vn -0.3583 0.1295 -0.9246
vn -0.0000 0.1536 -0.9881
vn 0.3500 -0.1897 -0.9173
vn 0.3205 -0.4147 -0.8516
vn 0.3583 0.1295 -0.9246
vn -0.3356 -0.6226 -0.7069
vn -0.3547 0.5661 -0.7442
vn -0.0000 0.6185 -0.7858
vn 0.3547 0.5661 -0.7442
vn 0.6375 0.4325 -0.6375
vn 0.7033 0.1039 -0.7033
vn 0.6949 -0.1854 -0.6949
vn 0.6477 -0.4012 -0.6477
vn 0.3356 -0.6226 -0.7069
vn 0.5900 -0.5511 -0.5900
vn -0.0000 -0.6496 -0.7602
vn 0.8516 -0.4147 -0.3205
vn 0.9173 -0.1897 -0.3500
vn 0.9809 -0.1945 -0.0000
vn 0.9035 -0.4287 -0.0000
vn 0.9246 0.1295 -0.3583
vn 0.9881 0.1536 -0.0000
vn 0.9173 -0.1897 0.3500
vn 0.8516 -0.4147 0.3205
vn 0.9246 0.1295 0.3583
vn 0.7069 -0.6226 -0.3356
vn 0.7442 0.5661 -0.3547
vn 0.7858 0.6185 -0.0000
vn 0.7442 0.5661 0.3547
vn 0.6375 0.4325 0.6375
vn 0.7033 0.1039 0.7033
vn 0.6949 -0.1854 0.6949
vn 0.6477 -0.4012 0.6477
vn 0.7069 -0.6226 0.3356
vn 0.5900 -0.5511 0.5900
vn 0.7602 -0.6496 -0.0000
vn 0.3205 -0.4147 0.8516
vn 0.3500 -0.1897 0.9173
vn -0.0000 -0.1945 0.9809
vn -0.0000 -0.4287 0.9035
vn 0.3583 0.1295 0.9246
vn -0.0000 0.1536 0.9881
vn -0.3500 -0.1897 0.9173
vn -0.3205 -0.4147 0.8516
vn -0.3583 0.1295 0.9246
vn 0.3356 -0.6226 0.7069
vn 0.3547 0.5661 0.7442
vn -0.0000 0.6185 0.7858
vn -0.3547 0.5661 0.7442
vn -0.3356 -0.6226 0.7069
vn -0.0000 -0.6496 0.7602
vn -0.4204 -0.8041 -0.4204
vn -0.0000 -0.8836 -0.4681
vn -0.0000 -1.0000 -0.0000
vn -0.4681 -0.8836 -0.0000
vn 0.4204 -0.8041 -0.4204
vn 0.4681 -0.8837 -0.0000
vn -0.0000 -0.8837 0.4681
vn -0.4204 -0.8041 0.4204
vn 0.4204 -0.8041 0.4204
vn 0.3663 0.8553 -0.3663
vn -0.0000 0.9249 -0.3803
vn -0.0000 1.0000 -0.0000
vn 0.3803 0.9249 -0.0000
vn -0.3663 0.8553 -0.3663
vn -0.3803 0.9249 -0.0000
vn -0.0000 0.9249 0.3803
vn 0.3663 0.8553 0.3663
vn -0.3663 0.8553 0.3663
vt 0.375000 0.000000
vt 0.375000 1.000000
vt 0.125000 0.750000
vt 0.625000 0.000000
vt 0.625000 1.000000
vt 0.875000 0.750000
vt 0.375000 0.250000
vt 0.125000 0.500000
vt 0.625000 0.250000
vt 0.875000 0.500000
vt 0.375000 0.750000
vt 0.625000 0.750000
vt 0.375000 0.500000
vt 0.625000 0.500000
vt 0.375000 0.187500
vt 0.125000 0.562500
vt 0.375000 0.125000
vt 0.125000 0.625000
vt 0.375000 0.062500
vt 0.125000 0.687500
vt 0.437500 0.000000
vt 0.437500 1.000000
vt 0.500000 0.000000
vt 0.500000 1.000000
vt 0.562500 0.000000
vt 0.562500 1.000000
vt 0.625000 0.062500
vt 0.875000 0.687500
vt 0.625000 0.125000
vt 0.875000 0.625000
vt 0.625000 0.187500
vt 0.875000 0.562500
vt 0.562500 0.250000
vt 0.500000 0.250000
vt 0.437500 0.250000
vt 0.375000 0.437500
vt 0.312500 0.500000
vt 0.375000 0.375000
vt 0.250000 0.500000
vt 0.375000 0.312500
vt 0.187500 0.500000
vt 0.625000 0.312500
vt 0.812500 0.500000
vt 0.625000 0.375000
vt 0.750000 0.500000
vt 0.625000 0.437500
vt 0.687500 0.500000
vt 0.562500 0.500000
vt 0.500000 0.500000
vt 0.437500 0.500000
vt 0.375000 0.687500
vt 0.375000 0.625000
vt 0.375000 0.562500
vt 0.625000 0.562500
vt 0.625000 0.625000
vt 0.625000 0.687500
vt 0.562500 0.750000
vt 0.500000 0.750000
vt 0.437500 0.750000
vt 0.375000 0.937500
vt 0.187500 0.750000
vt 0.375000 0.875000
vt 0.250000 0.750000
vt 0.375000 0.812500
vt 0.312500 0.750000
vt 0.625000 0.812500
vt 0.687500 0.750000
vt 0.625000 0.875000
vt 0.750000 0.750000
vt 0.625000 0.937500
vt 0.812500 0.750000
vt 0.437500 0.062500
vt 0.500000 0.062500
vt 0.562500 0.062500
vt 0.437500 0.125000
vt 0.500000 0.125000
vt 0.562500 0.125000
vt 0.437500 0.187500
vt 0.500000 0.187500
vt 0.562500 0.187500
vt 0.437500 0.312500
vt 0.500000 0.312500
vt 0.562500 0.312500
vt 0.437500 0.375000
vt 0.500000 0.375000
vt 0.562500 0.375000
vt 0.437500 0.437500
vt 0.500000 0.437500
vt 0.562500 0.437500
vt 0.437500 0.562500
vt 0.500000 0.562500
vt 0.562500 0.562500
vt 0.437500 0.625000
vt 0.500000 0.625000
vt 0.562500 0.625000
vt 0.437500 0.687500
vt 0.500000 0.687500
vt 0.562500 0.687500
vt 0.437500 0.812500
vt 0.500000 0.812500
vt 0.562500 0.812500
vt 0.437500 0.875000
vt 0.500000 0.875000
vt 0.562500 0.875000
vt 0.437500 0.937500
vt 0.500000 0.937500
vt 0.562500 0.937500
vt 0.187500 0.562500
vt 0.250000 0.562500
vt 0.312500 0.562500
vt 0.187500 0.625000
vt 0.250000 0.625000
vt 0.312500 0.625000
vt 0.187500 0.687500
vt 0.250000 0.687500
vt 0.312500 0.687500
vt 0.687500 0.562500
vt 0.750000 0.562500
vt 0.812500 0.562500
vt 0.687500 0.625000
vt 0.750000 0.625000
vt 0.812500 0.625000
vt 0.687500 0.687500
vt 0.750000 0.687500
vt 0.812500 0.687500
s 1
usemtl Material.003
f 45/72/1 46/73/2 49/76/3 48/75/4
f 46/73/2 47/74/5 50/77/6 49/76/3
f 48/75/4 49/76/3 52/79/7 51/78/8
f 49/76/3 50/77/6 53/80/9 52/79/7
f 1/1/10 12/21/11 45/72/1 11/19/12
f 12/21/11 13/23/13 46/73/2 45/72/1
f 13/23/13 14/25/14 47/74/5 46/73/2
f 14/25/14 2/4/15 15/27/16 47/74/5
f 47/74/5 15/27/16 16/29/17 50/77/6
f 50/77/6 16/29/17 17/31/18 53/80/9
f 53/80/9 17/31/18 4/9/19 18/33/20
f 52/79/7 53/80/9 18/33/20 19/34/21
f 51/78/8 52/79/7 19/34/21 20/35/22
f 9/15/23 51/78/8 20/35/22 3/7/24
f 10/17/25 48/75/4 51/78/8 9/15/23
f 11/19/12 45/72/1 48/75/4 10/17/25
f 54/81/26 55/82/27 58/85/28 57/84/29
f 55/82/27 56/83/30 59/86/31 58/85/28
f 57/84/29 58/85/28 61/88/32 60/87/33
f 58/85/28 59/86/31 62/89/34 61/88/32
f 3/7/24 20/35/22 54/81/26 23/40/35
f 20/35/22 19/34/21 55/82/27 54/81/26
f 19/34/21 18/33/20 56/83/30 55/82/27
f 18/33/20 4/9/19 24/42/36 56/83/30
f 56/83/30 24/42/36 25/44/37 59/86/31
f 59/86/31 25/44/37 26/46/38 62/89/34
f 62/89/34 26/46/38 8/14/39 27/48/40
f 61/88/32 62/89/34 27/48/40 28/49/41
f 60/87/33 61/88/32 28/49/41 29/50/42
f 21/36/43 60/87/33 29/50/42 7/13/44
f 22/38/45 57/84/29 60/87/33 21/36/43
f 23/40/35 54/81/26 57/84/29 22/38/45
f 63/90/46 64/91/47 67/94/48 66/93/49
f 64/91/47 65/92/50 68/95/51 67/94/48
f 66/93/49 67/94/48 70/97/52 69/96/53
f 67/94/48 68/95/51 71/98/54 70/97/52
f 7/13/44 29/50/42 63/90/46 32/53/55
f 29/50/42 28/49/41 64/91/47 63/90/46
f 28/49/41 27/48/40 65/92/50 64/91/47
f 27/48/40 8/14/39 33/54/56 65/92/50
f 65/92/50 33/54/56 34/55/57 68/95/51
f 68/95/51 34/55/57 35/56/58 71/98/54
f 71/98/54 35/56/58 6/12/59 36/57/60
f 70/97/52 71/98/54 36/57/60 37/58/61
f 69/96/53 70/97/52 37/58/61 38/59/62
f 30/51/63 69/96/53 38/59/62 5/11/64
f 31/52/65 66/93/49 69/96/53 30/51/63
f 32/53/55 63/90/46 66/93/49 31/52/65
f 72/99/66 73/100/67 76/103/68 75/102/69
f 73/100/67 74/101/70 77/104/71 76/103/68
f 75/102/69 76/103/68 79/106/72 78/105/73
f 76/103/68 77/104/71 80/107/74 79/106/72
f 5/11/64 38/59/62 72/99/66 41/64/75
f 38/59/62 37/58/61 73/100/67 72/99/66
f 37/58/61 36/57/60 74/101/70 73/100/67
f 36/57/60 6/12/59 42/66/76 74/101/70
f 74/101/70 42/66/76 43/68/77 77/104/71
f 77/104/71 43/68/77 44/70/78 80/107/74
f 80/107/74 44/70/78 2/5/15 14/26/14
f 79/106/72 80/107/74 14/26/14 13/24/13
f 78/105/73 79/106/72 13/24/13 12/22/11
f 39/60/79 78/105/73 12/22/11 1/2/10
f 40/62/80 75/102/69 78/105/73 39/60/79
f 41/64/75 72/99/66 75/102/69 40/62/80
f 81/108/81 82/109/82 85/112/83 84/111/84
f 82/109/82 83/110/85 86/113/86 85/112/83
f 84/111/84 85/112/83 88/115/87 87/114/88
f 85/112/83 86/113/86 89/116/89 88/115/87
f 3/8/24 23/41/35 81/108/81 9/16/23
f 23/41/35 22/39/45 82/109/82 81/108/81
f 22/39/45 21/37/43 83/110/85 82/109/82
f 21/37/43 7/13/44 32/53/55 83/110/85
f 83/110/85 32/53/55 31/52/65 86/113/86
f 86/113/86 31/52/65 30/51/63 89/116/89
f 89/116/89 30/51/63 5/11/64 41/65/75
f 88/115/87 89/116/89 41/65/75 40/63/80
f 87/114/88 88/115/87 40/63/80 39/61/79
f 11/20/12 87/114/88 39/61/79 1/3/10
f 10/18/25 84/111/84 87/114/88 11/20/12
f 9/16/23 81/108/81 84/111/84 10/18/25
f 90/117/90 91/118/91 94/121/92 93/120/93
f 91/118/91 92/119/94 95/122/95 94/121/92
f 93/120/93 94/121/92 97/124/96 96/123/97
f 94/121/92 95/122/95 98/125/98 97/124/96
f 8/14/39 26/47/38 90/117/90 33/54/56
f 26/47/38 25/45/37 91/118/91 90/117/90
f 25/45/37 24/43/36 92/119/94 91/118/91
f 24/43/36 4/10/19 17/32/18 92/119/94
f 92/119/94 17/32/18 16/30/17 95/122/95
f 95/122/95 16/30/17 15/28/16 98/125/98
f 98/125/98 15/28/16 2/6/15 44/71/78
f 97/124/96 98/125/98 44/71/78 43/69/77
f 96/123/97 97/124/96 43/69/77 42/67/76
f 35/56/58 96/123/97 42/67/76 6/12/59
f 34/55/57 93/120/93 96/123/97 35/56/58
f 33/54/56 90/117/90 93/120/93 34/55/57
o Cone
v 0.028514 -0.023986 0.023774
v 0.071081 -0.023855 0.055247
v 0.053171 -0.023982 0.105063
v 0.019501 -0.023986 0.115279
v -0.023065 -0.023855 0.083806
v -0.005156 -0.023982 0.033990
v 0.024008 0.065837 0.069527
vn 0.5434 0.4025 -0.7367
vn 0.8611 0.4025 0.3106
vn 0.2624 0.4275 0.8651
vn -0.5434 0.4025 0.7367
vn -0.8611 0.4025 -0.3106
vn -0.2624 0.4275 -0.8651
vn -0.0000 -1.0000 -0.0000
vt 0.272961 0.483127
vt 0.772961 0.483127
vt 0.457104 0.312825
vt 0.957104 0.312825
vt 0.398610 0.068918
vt 0.898610 0.068918
vt 0.227039 0.016873
vt 0.727039 0.016873
vt 0.042896 0.187175
vt 0.542896 0.187175
vt 0.101390 0.431082
vt 0.601390 0.431082
vt 0.250000 0.250000
s 0
usemtl Material.003
f 99/126/99 105/138/99 100/128/99
f 100/128/100 105/138/100 101/130/100
f 101/130/101 105/138/101 102/132/101
f 102/132/102 105/138/102 103/134/102
f 103/134/103 105/138/103 104/136/103
f 104/136/104 105/138/104 99/126/104
f 102/133/105 103/135/105 104/137/105 99/127/105 100/129/105 101/131/105
