# Blender 3.3.6
# www.blender.org
mtllib Hat.mtl
o Cube
v -0.499513 4.793219 0.418178
v -0.499513 4.793219 -0.582183
v -0.499513 3.792859 0.418178
v -0.499513 3.792859 -0.582183
v 0.500847 4.793219 0.418178
v 0.500847 4.793219 -0.582183
v 0.500847 3.792859 0.418178
v 0.500847 3.792859 -0.582183
v -0.572472 3.996282 0.491137
v -0.609120 4.293039 0.527785
v -0.572472 4.589796 0.491137
v -0.572472 4.866178 0.214754
v -0.609120 4.902826 -0.082002
v -0.572472 4.866178 -0.378759
v -0.572472 4.589796 -0.655142
v -0.609120 4.293039 -0.691790
v -0.572472 3.996282 -0.655142
v -0.572472 3.719900 -0.378759
v -0.609120 3.683251 -0.082002
v -0.572472 3.719900 0.214754
v 0.297424 3.719900 0.491137
v 0.000667 3.683251 0.527785
v -0.296090 3.719900 0.491137
v -0.296090 3.719900 -0.655142
v 0.000667 3.683251 -0.691790
v 0.297424 3.719900 -0.655142
v 0.573806 3.719900 -0.378759
v 0.610455 3.683251 -0.082002
v 0.573806 3.719900 0.214754
v 0.573806 4.589796 0.491137
v 0.610455 4.293039 0.527785
v 0.573806 3.996282 0.491137
v 0.573806 3.996282 -0.655142
v 0.610455 4.293039 -0.691790
v 0.573806 4.589796 -0.655142
v 0.573806 4.866178 -0.378759
v 0.610455 4.902826 -0.082002
v 0.573806 4.866178 0.214754
v -0.296090 4.866178 0.491137
v 0.000667 4.902826 0.527785
v 0.297424 4.866178 0.491137
v 0.297424 4.866178 -0.655142
v 0.000667 4.902826 -0.691790
v -0.296090 4.866178 -0.655142
v -0.728585 4.609310 0.234269
v -0.781443 4.626299 -0.082002
v -0.728586 4.609310 -0.398273
v -0.781443 4.293039 0.251258
v -0.839142 4.293039 -0.082002
v -0.781443 4.293039 -0.415263
v -0.728586 3.976768 0.234269
v -0.781443 3.959778 -0.082002
v -0.728585 3.976768 -0.398273
v -0.315604 3.563786 0.234269
v -0.332593 3.510928 -0.082002
v -0.315604 3.563786 -0.398273
v 0.000667 3.510928 0.251258
v 0.000667 3.453230 -0.082002
v 0.000667 3.510928 -0.415263
v 0.316938 3.563786 0.234269
v 0.333928 3.510928 -0.082002
v 0.316938 3.563786 -0.398273
v 0.729920 3.976768 0.234269
v 0.782778 3.959778 -0.082002
v 0.729920 3.976768 -0.398273
v 0.782777 4.293039 0.251258
v 0.840476 4.293039 -0.082002
v 0.782777 4.293039 -0.415263
v 0.729920 4.609310 0.234269
v 0.782778 4.626299 -0.082002
v 0.729920 4.609310 -0.398273
v 0.316938 5.022291 0.234269
v 0.333928 5.075149 -0.082002
v 0.316938 5.022291 -0.398273
v 0.000667 5.075149 0.251258
v 0.000667 5.132847 -0.082002
v 0.000667 5.075149 -0.415263
v -0.315604 5.022291 0.234269
v -0.332593 5.075149 -0.082002
v -0.315604 5.022291 -0.398273
v -0.315604 3.976768 0.647250
v 0.000667 3.959778 0.700108
v 0.316938 3.976768 0.647250
v -0.332593 4.293039 0.700108
v 0.000667 4.293039 0.757806
v 0.333928 4.293039 0.700108
v -0.315604 4.609310 0.647250
v 0.000667 4.626299 0.700108
v 0.316938 4.609310 0.647250
v 0.316938 3.976768 -0.811255
v 0.000667 3.959778 -0.864113
v -0.315604 3.976768 -0.811255
v 0.333928 4.293039 -0.864113
v 0.000667 4.293039 -0.921811
v -0.332593 4.293039 -0.864113
v 0.316938 4.609310 -0.811255
v 0.000667 4.626299 -0.864113
v -0.315604 4.609310 -0.811255
v 0.023184 -0.244087 -2.159464
v 0.622977 -0.244056 -2.080241
v 1.333982 -0.244056 -1.700201
v 1.947100 -0.243977 -0.899900
v 2.079660 -0.244087 -0.102988
v 2.000436 -0.244050 0.496805
v 1.733081 -0.244087 1.039529
v 1.333981 -0.244050 1.494225
v 0.622977 -0.244061 1.874267
v 0.023184 -0.244087 1.953489
v -0.576609 -0.244050 1.874264
v -1.119334 -0.244087 1.606910
v -1.574029 -0.244050 1.207810
v -1.954071 -0.244061 0.496806
v -2.033293 -0.244087 -0.102988
v -1.954068 -0.244050 -0.702781
v -1.686714 -0.244087 -1.245505
v -1.287614 -0.244050 -1.700200
v -0.576610 -0.244061 -2.080242
v 0.000667 4.187593 -0.082002
v 0.000667 4.718042 -0.082002
v -0.339648 -0.243977 -1.927069
v 0.734906 -0.243989 -1.821237
v 1.449657 -0.244063 -1.273662
v 0.734906 -0.243989 1.615262
v 1.449654 -0.244054 1.067686
v 1.789070 -0.244063 0.432688
v 1.847265 -0.243977 -0.465820
v -1.604266 -0.244063 0.766904
v -1.147490 -0.244054 1.323483
v -0.339650 -0.243999 1.721099
v -1.813275 -0.244054 0.077887
v -1.695066 -0.243989 -0.814711
v -1.147491 -0.244063 -1.529460
vn -0.8797 0.3362 0.3362
vn -0.9345 0.3560 -0.0000
vn -1.0000 -0.0000 -0.0000
vn -0.9345 -0.0000 0.3560
vn -0.8797 0.3362 -0.3362
vn -0.9345 -0.0000 -0.3560
vn -0.9345 -0.3560 -0.0000
vn -0.8797 -0.3362 0.3362
vn -0.8797 -0.3362 -0.3362
vn -0.5774 0.5774 0.5774
vn -0.6709 0.6709 0.3157
vn -0.6709 0.3157 0.6709
vn -0.7071 0.7071 -0.0000
vn -0.6709 0.6709 -0.3157
vn -0.5774 0.5774 -0.5774
vn -0.6709 0.3157 -0.6709
vn -0.7071 -0.0000 -0.7071
vn -0.6709 -0.3157 -0.6709
vn -0.5774 -0.5774 -0.5774
vn -0.6709 -0.6709 -0.3157
vn -0.7071 -0.7071 -0.0000
vn -0.6709 -0.6709 0.3157
vn -0.6709 -0.3157 0.6709
vn -0.5774 -0.5774 0.5774
vn -0.7071 -0.0000 0.7071
vn -0.3362 -0.8797 0.3362
vn -0.3560 -0.9345 -0.0000
vn -0.0000 -1.0000 -0.0000
vn -0.0000 -0.9345 0.3560
vn -0.3362 -0.8797 -0.3362
vn -0.0000 -0.9345 -0.3560
vn 0.3560 -0.9345 -0.0000
vn 0.3362 -0.8797 0.3362
vn 0.3362 -0.8797 -0.3362
vn -0.3157 -0.6709 0.6709
vn -0.3157 -0.6709 -0.6709
vn -0.0000 -0.7071 -0.7071
vn 0.3157 -0.6709 -0.6709
vn 0.5774 -0.5774 -0.5774
vn 0.6709 -0.6709 -0.3157
vn 0.7071 -0.7071 -0.0000
vn 0.6709 -0.6709 0.3157
vn 0.3157 -0.6709 0.6709
vn 0.5774 -0.5774 0.5774
vn -0.0000 -0.7071 0.7071
vn 0.8797 -0.3362 0.3362
vn 0.9345 -0.3560 -0.0000
vn 1.0000 -0.0000 -0.0000
vn 0.9345 -0.0000 0.3560
vn 0.8797 -0.3362 -0.3362
vn 0.9345 -0.0000 -0.3560
vn 0.9345 0.3560 -0.0000
vn 0.8797 0.3362 0.3362
vn 0.8797 0.3362 -0.3362
vn 0.6709 -0.3157 0.6709
vn 0.6709 -0.3157 -0.6709
vn 0.7071 -0.0000 -0.7071
vn 0.6709 0.3157 -0.6709
vn 0.5774 0.5774 -0.5774
vn 0.6709 0.6709 -0.3157
vn 0.7071 0.7071 -0.0000
vn 0.6709 0.6709 0.3157
vn 0.6709 0.3157 0.6709
vn 0.5774 0.5774 0.5774
vn 0.7071 -0.0000 0.7071
vn 0.3362 0.8797 0.3362
vn 0.3560 0.9345 -0.0000
vn -0.0000 1.0000 -0.0000
vn -0.0000 0.9345 0.3560
vn 0.3362 0.8797 -0.3362
vn -0.0000 0.9345 -0.3560
vn -0.3560 0.9345 -0.0000
vn -0.3362 0.8797 0.3362
vn -0.3362 0.8797 -0.3362
vn 0.3157 0.6709 0.6709
vn 0.3157 0.6709 -0.6709
vn -0.0000 0.7071 -0.7071
vn -0.3157 0.6709 -0.6709
vn -0.3157 0.6709 0.6709
vn -0.0000 0.7071 0.7071
vn -0.3362 -0.3362 0.8797
vn -0.0000 -0.3560 0.9345
vn -0.0000 -0.0000 1.0000
vn -0.3560 -0.0000 0.9345
vn 0.3362 -0.3362 0.8797
vn 0.3560 -0.0000 0.9345
vn -0.0000 0.3560 0.9345
vn -0.3362 0.3362 0.8797
vn 0.3362 0.3362 0.8797
vn 0.3362 -0.3362 -0.8797
vn -0.0000 -0.3560 -0.9345
vn -0.0000 -0.0000 -1.0000
vn 0.3560 -0.0000 -0.9345
vn -0.3362 -0.3362 -0.8797
vn -0.3560 -0.0000 -0.9345
vn -0.0000 0.3560 -0.9345
vn 0.3362 0.3362 -0.8797
vn -0.3362 0.3362 -0.8797
vn 0.1209 0.3838 -0.9155
vn 0.4355 0.3827 -0.8148
vn 0.7340 0.3806 -0.5624
vn 0.9114 0.3825 -0.1516
vn 0.9157 0.3832 0.1209
vn 0.8291 0.3818 0.4085
vn 0.6950 0.3805 0.6100
vn 0.4366 0.3768 0.8169
vn 0.1213 0.3772 0.9182
vn -0.1213 0.3762 0.9185
vn -0.4096 0.3754 0.8314
vn -0.6115 0.3751 0.6967
vn -0.8182 0.3733 0.4373
vn -0.9186 0.3760 0.1213
vn -0.9183 0.3769 -0.1213
vn -0.8304 0.3783 -0.4091
vn -0.6953 0.3795 -0.6103
vn -0.4362 0.3793 -0.8160
vn -0.1209 0.3829 -0.9158
vn -0.0908 -0.3768 0.9218
vn -0.5623 -0.3812 0.7339
vn -0.8295 -0.3810 0.4083
vn -0.9232 -0.3795 -0.0598
vn -0.8158 -0.3799 -0.4361
vn -0.5637 -0.3752 -0.7358
vn -0.0911 -0.3693 -0.9248
vn 0.4102 -0.3706 -0.8333
vn 0.7174 -0.3726 -0.5887
vn 0.8878 -0.3731 -0.2693
vn 0.9201 -0.3722 0.1218
vn 0.7359 -0.3748 0.5638
vn 0.4090 -0.3773 0.8309
vn -0.0001 -1.0000 0.0004
vt 0.557907 0.968200
vt 0.956884 0.177014
vt 0.981617 0.032147
vt 0.839083 0.824886
vt 0.534939 0.833668
vt 0.808654 0.571601
vt 0.310912 0.842843
vt 0.840112 0.516007
vt 0.611172 0.834220
vt 0.031046 0.948283
vt 0.715648 0.167134
vt 0.953069 0.816240
vt 0.242003 0.956923
vt 0.862450 0.961750
vt 0.972942 0.262766
vt 0.947852 0.586338
vt 0.263631 0.830240
vt 0.833744 0.284613
vt 0.553174 0.862339
vt 0.797714 0.620247
vt 0.566801 0.902908
vt 0.793233 0.689398
vt 0.566801 0.942157
vt 0.981005 0.194254
vt 0.800809 0.756647
vt 0.511252 0.981861
vt 0.976520 0.146141
vt 0.444242 0.990508
vt 0.991194 0.102455
vt 0.378336 0.987305
vt 0.861872 0.808598
vt 0.991194 0.060191
vt 0.788211 0.818819
vt 0.293681 0.914094
vt 0.718327 0.817588
vt 0.296469 0.872853
vt 0.652991 0.824358
vt 0.352018 0.833149
vt 0.870892 0.531332
vt 0.416240 0.829595
vt 0.913427 0.534781
vt 0.484933 0.830806
vt 0.986398 0.311118
vt 0.917317 0.569543
vt 0.994395 0.380413
vt 0.874904 0.558241
vt 0.557339 0.817658
vt 0.990176 0.448404
vt 0.834730 0.560800
vt 0.830674 0.473438
vt 0.596479 0.864750
vt 0.824694 0.407048
vt 0.593643 0.906706
vt 0.826896 0.336152
vt 0.863594 0.266186
vt 0.219698 0.817376
vt 0.905663 0.252680
vt 0.156598 0.809234
vt 0.946180 0.253224
vt 0.962779 0.562366
vt 0.094537 0.812250
vt 0.017446 0.920025
vt 0.960312 0.773533
vt 0.014821 0.881190
vt 0.962935 0.707364
vt 0.957216 0.637133
vt 0.272006 0.854764
vt 0.817526 0.261267
vt 0.679766 0.981186
vt 0.272006 0.891723
vt 0.746814 0.984444
vt 0.259174 0.929925
vt 0.814986 0.975648
vt 0.194915 0.962538
vt 0.697093 0.090410
vt 0.130230 0.963678
vt 0.069754 0.957412
vt 0.700095 0.134819
vt 0.903037 0.183435
vt 0.881264 0.838522
vt 0.829067 0.184739
vt 0.759911 0.177573
vt 0.923295 0.832980
vt 0.263096 0.972000
vt 0.788252 0.011575
vt 0.871498 0.935256
vt 0.859220 0.008126
vt 0.871498 0.895326
vt 0.931377 0.017437
vt 0.857634 0.854054
vt 0.503787 0.951381
vt 0.431339 0.958003
vt 0.362132 0.957183
vt 0.798948 0.790175
vt 0.498320 0.910129
vt 0.421493 0.914754
vt 0.725001 0.786365
vt 0.349055 0.916242
vt 0.489264 0.866314
vt 0.416036 0.868367
vt 0.347608 0.872116
vt 0.495488 0.802650
vt 0.958856 0.464715
vt 0.422800 0.798904
vt 0.916411 0.477647
vt 0.870839 0.478529
vt 0.960662 0.393282
vt 0.915878 0.402847
vt 0.867917 0.407839
vt 0.954829 0.318402
vt 0.912168 0.323474
vt 0.866812 0.332216
vt 0.079278 0.840615
vt 0.985347 0.624493
vt 0.144448 0.839842
vt 0.212669 0.846078
vt 0.066964 0.879167
vt 0.993921 0.698649
vt 0.135176 0.880569
vt 0.207521 0.884924
vt 0.065602 0.920719
vt 0.130037 0.924249
vt 0.198993 0.926182
vt 0.755163 0.135613
vt 0.756721 0.088097
vt 0.136407 0.992579
vt 0.204854 0.989051
vt 0.770802 0.044011
vt 0.828847 0.139650
vt 0.834724 0.089700
vt 0.845326 0.043128
vt 0.907701 0.141860
vt 0.917452 0.094680
vt 0.923339 0.050259
vt 0.829398 0.625899
vt 0.871979 0.628805
vt 0.917415 0.635217
vt 0.827344 0.700485
vt 0.872254 0.707743
vt 0.920089 0.710304
vt 0.914402 0.213754
vt 0.832697 0.771270
vt 0.875455 0.781984
vt 0.836131 0.217788
vt 0.920714 0.780588
vt 0.797976 0.324866
vt 0.663280 0.950541
vt 0.793102 0.399851
vt 0.649977 0.908891
vt 0.648505 0.864000
vt 0.733688 0.951376
vt 0.723671 0.907377
vt 0.718119 0.860186
vt 0.807392 0.944639
vt 0.801830 0.902672
vt 0.792617 0.858098
vt 0.383541 0.801679
vt 0.382379 0.790768
vt 0.496506 0.783039
vt 0.495343 0.776035
vt 0.630416 0.711463
vt 0.629253 0.706412
vt 0.740280 0.558152
vt 0.739118 0.553100
vt 0.774575 0.410646
vt 0.765600 0.405594
vt 0.755935 0.297681
vt 0.754773 0.292630
vt 0.708674 0.193399
vt 0.707511 0.188348
vt 0.630416 0.109828
vt 0.629253 0.104777
vt 0.496506 0.038252
vt 0.495343 0.033201
vt 0.383541 0.019612
vt 0.382379 0.014561
vt 0.270577 0.038252
vt 0.269415 0.033201
vt 0.166295 0.085513
vt 0.165133 0.080462
vt 0.082724 0.163771
vt 0.081562 0.158720
vt 0.011148 0.297681
vt 0.009985 0.292630
vt 0.000506 0.410646
vt 0.002197 0.405594
vt 0.011148 0.523610
vt 0.009985 0.518559
vt 0.058409 0.627892
vt 0.057247 0.622841
vt 0.136667 0.711463
vt 0.135505 0.706412
vt 0.270577 0.783039
vt 0.269415 0.777988
vt 0.383541 0.410646
vt 0.383541 0.410646
vt 0.316071 0.748745
vt 0.314909 0.743693
vt 0.515279 0.729249
vt 0.514117 0.724198
vt 0.652201 0.631129
vt 0.651039 0.626078
vt 0.515279 0.092042
vt 0.514117 0.086991
vt 0.652201 0.190162
vt 0.651039 0.185111
vt 0.716126 0.309757
vt 0.714964 0.304706
vt 0.721640 0.478116
vt 0.720478 0.473065
vt 0.077029 0.246811
vt 0.075867 0.241760
vt 0.163058 0.141986
vt 0.161896 0.136934
vt 0.316071 0.072547
vt 0.314908 0.067495
vt 0.037665 0.376580
vt 0.045029 0.371529
vt 0.064938 0.542384
vt 0.063775 0.537332
vt 0.163058 0.679306
vt 0.161896 0.674254
s 1
usemtl Material.001
f 45/91/1 46/92/2 49/96/3 48/95/4
f 46/92/2 47/93/5 50/98/6 49/96/3
f 48/95/4 49/96/3 52/100/7 51/99/8
f 49/96/3 50/98/6 53/101/9 52/100/7
f 1/1/10 12/26/11 45/91/1 11/23/12
f 12/26/11 13/28/13 46/92/2 45/91/1
f 13/28/13 14/30/14 47/93/5 46/92/2
f 14/31/14 2/4/15 15/33/16 47/94/5
f 47/94/5 15/33/16 16/35/17 50/97/6
f 50/98/6 16/34/17 17/36/18 53/101/9
f 53/101/9 17/36/18 4/7/19 18/38/20
f 52/100/7 53/101/9 18/38/20 19/40/21
f 51/99/8 52/100/7 19/40/21 20/42/22
f 9/19/23 51/99/8 20/42/22 3/5/24
f 10/21/25 48/95/4 51/99/8 9/19/23
f 11/23/12 45/91/1 48/95/4 10/21/25
f 54/103/26 55/105/27 58/108/28 57/107/29
f 55/105/27 56/106/30 59/109/31 58/108/28
f 57/107/29 58/108/28 61/111/32 60/110/33
f 58/108/28 59/109/31 62/112/34 61/111/32
f 3/5/24 20/42/22 54/102/26 23/47/35
f 20/42/22 19/40/21 55/104/27 54/102/26
f 19/41/21 18/39/20 56/106/30 55/105/27
f 18/39/20 4/8/19 24/50/36 56/106/30
f 56/106/30 24/50/36 25/52/37 59/109/31
f 59/109/31 25/52/37 26/54/38 62/112/34
f 62/112/34 26/54/38 8/18/39 27/55/40
f 61/111/32 62/112/34 27/55/40 28/57/41
f 60/110/33 61/111/32 28/57/41 29/59/42
f 21/43/43 60/110/33 29/59/42 7/15/44
f 22/45/45 57/107/29 60/110/33 21/43/43
f 23/48/35 54/103/26 57/107/29 22/45/45
f 63/113/46 64/115/47 67/119/48 66/117/49
f 64/115/47 65/116/50 68/120/51 67/119/48
f 66/117/49 67/119/48 70/122/52 69/121/53
f 67/119/48 68/120/51 71/123/54 70/122/52
f 7/16/44 29/60/42 63/114/46 32/66/55
f 29/61/42 28/58/41 64/115/47 63/113/46
f 28/58/41 27/56/40 65/116/50 64/115/47
f 27/56/40 8/17/39 33/67/56 65/116/50
f 65/116/50 33/67/56 34/70/57 68/120/51
f 68/120/51 34/70/57 35/72/58 71/123/54
f 71/123/54 35/72/58 6/13/59 36/74/60
f 70/122/52 71/123/54 36/74/60 37/76/61
f 69/121/53 70/122/52 37/76/61 38/77/62
f 30/62/63 69/121/53 38/77/62 5/10/64
f 31/64/65 66/117/49 69/121/53 30/62/63
f 32/66/55 63/114/46 66/118/49 31/65/65
f 72/124/66 73/125/67 76/130/68 75/129/69
f 73/125/67 74/128/70 77/131/71 76/130/68
f 75/129/69 76/130/68 79/133/72 78/132/73
f 76/130/68 77/131/71 80/134/74 79/133/72
f 5/11/64 38/78/62 72/124/66 41/82/75
f 38/78/62 37/75/61 73/125/67 72/124/66
f 37/76/61 36/74/60 74/127/70 73/126/67
f 36/74/60 6/13/59 42/84/76 74/127/70
f 74/128/70 42/85/76 43/87/77 77/131/71
f 77/131/71 43/87/77 44/89/78 80/134/74
f 80/134/74 44/89/78 2/3/15 14/32/14
f 79/133/72 80/134/74 14/32/14 13/29/13
f 78/132/73 79/133/72 13/29/13 12/27/11
f 39/79/79 78/132/73 12/27/11 1/2/10
f 40/81/80 75/129/69 78/132/73 39/79/79
f 41/82/75 72/124/66 75/129/69 40/81/80
f 81/135/81 82/136/82 85/139/83 84/138/84
f 82/136/82 83/137/85 86/140/86 85/139/83
f 84/138/84 85/139/83 88/143/87 87/142/88
f 85/139/83 86/140/86 89/145/89 88/143/87
f 3/6/24 23/49/35 81/135/81 9/20/23
f 23/49/35 22/46/45 82/136/82 81/135/81
f 22/46/45 21/44/43 83/137/85 82/136/82
f 21/44/43 7/16/44 32/66/55 83/137/85
f 83/137/85 32/66/55 31/65/65 86/140/86
f 86/140/86 31/65/65 30/63/63 89/145/89
f 89/145/89 30/63/63 5/12/64 41/83/75
f 88/143/87 89/145/89 41/83/75 40/80/80
f 87/141/88 88/144/87 40/81/80 39/79/79
f 11/24/12 87/141/88 39/79/79 1/2/10
f 10/22/25 84/138/84 87/142/88 11/25/12
f 9/20/23 81/135/81 84/138/84 10/22/25
f 90/147/90 91/149/91 94/152/92 93/151/93
f 91/149/91 92/150/94 95/153/95 94/152/92
f 93/151/93 94/152/92 97/155/96 96/154/97
f 94/152/92 95/153/95 98/156/98 97/155/96
f 8/18/39 26/54/38 90/146/90 33/68/56
f 26/54/38 25/52/37 91/148/91 90/146/90
f 25/53/37 24/51/36 92/150/94 91/149/91
f 24/51/36 4/9/19 17/37/18 92/150/94
f 92/150/94 17/37/18 16/35/17 95/153/95
f 95/153/95 16/35/17 15/33/16 98/156/98
f 98/156/98 15/33/16 2/4/15 44/90/78
f 97/155/96 98/156/98 44/90/78 43/88/77
f 96/154/97 97/155/96 43/88/77 42/86/76
f 35/73/58 96/154/97 42/86/76 6/14/59
f 34/71/57 93/151/93 96/154/97 35/73/58
f 33/69/56 90/147/90 93/151/93 34/71/57
s 0
f 119/196/99 100/159/99 99/157/99
f 119/196/100 101/161/100 100/159/100
f 119/196/101 102/163/101 101/161/101
f 119/196/102 103/165/102 102/163/102
f 104/167/103 103/165/103 119/196/103
f 105/169/104 104/167/104 119/196/104
f 106/171/105 105/169/105 119/196/105
f 119/196/106 107/173/106 106/171/106
f 119/196/107 108/175/107 107/173/107
f 119/196/108 109/177/108 108/175/108
f 110/179/109 109/177/109 119/196/109
f 111/181/110 110/179/110 119/196/110
f 111/181/111 119/196/111 112/183/111
f 112/183/112 119/196/112 113/185/112
f 119/196/113 114/187/113 113/185/113
f 119/196/114 115/189/114 114/187/114
f 119/196/115 116/191/115 115/189/115
f 116/191/116 119/196/116 117/193/116
f 119/196/117 99/157/117 117/193/117
f 118/195/118 120/197/118 121/199/118
f 118/195/119 121/199/119 122/201/119
f 118/195/120 122/201/120 126/209/120
f 126/209/121 125/207/121 118/195/121
f 125/207/122 124/205/122 118/195/122
f 118/195/123 124/205/123 123/203/123
f 118/195/124 123/203/124 129/215/124
f 129/215/125 128/213/125 118/195/125
f 127/211/126 118/195/126 128/213/126
f 130/217/127 118/195/127 127/211/127
f 131/219/128 118/195/128 130/217/128
f 118/195/129 131/219/129 132/221/129
f 120/197/130 118/195/130 132/221/130
f 101/162/28 102/164/28 103/166/28 104/168/28 105/170/28 106/172/28 107/174/28 108/176/28 109/178/28 110/180/28 111/182/28 112/184/28 113/186/28 114/188/28 115/190/28 116/192/28 117/194/28 120/198/28 132/222/28 131/220/28 130/218/28 127/212/28 128/214/28 129/216/28 123/204/28 124/206/28 125/208/28 126/210/28 122/202/28 121/200/28
f 121/200/131 120/198/131 117/194/131 99/158/131 100/160/131 101/162/131
