# Blender 3.3.6
# www.blender.org
mtllib Lightbulb.mtl
o Cube
v -0.170123 -0.195716 0.170123
v -0.200659 0.191910 0.200659
v -0.170123 -0.195716 -0.170123
v -0.200659 0.191910 -0.200659
v 0.170123 -0.195716 0.170123
v 0.200659 0.191910 0.200659
v 0.170123 -0.195716 -0.170123
v 0.200659 0.191910 -0.200659
v -0.301449 0.375677 0.301449
v -0.301449 0.375677 -0.301449
v 0.301449 0.375677 -0.301449
v 0.301449 0.375677 0.301449
v -0.480896 0.781854 0.480896
v -0.480896 0.781854 -0.480896
v 0.480896 0.781853 -0.480896
v 0.480896 0.781854 0.480896
v -0.391522 1.699103 0.391522
v -0.391522 1.699103 -0.391522
v 0.391522 1.699103 -0.391522
v 0.391522 1.699103 0.391522
v -0.233919 -0.195716 0.000000
v -0.185657 -0.006326 0.185657
v -0.275907 0.191910 -0.000000
v -0.185657 -0.006326 -0.185657
v 0.000000 -0.195716 -0.233919
v -0.000000 0.191910 -0.275907
v 0.185657 -0.006326 -0.185657
v 0.233919 -0.195716 0.000000
v 0.275907 0.191910 -0.000000
v 0.185657 -0.006326 0.185657
v -0.000000 -0.195716 0.233919
v -0.000000 0.191910 0.275907
v -0.414492 0.375677 0.000000
v 0.000000 0.375677 -0.414492
v 0.414492 0.375677 0.000000
v -0.000000 0.375677 0.414492
v -0.235629 0.305482 -0.235629
v 0.235629 0.305482 -0.235629
v 0.235629 0.305482 0.235629
v -0.235629 0.305482 0.235629
v -0.661231 0.781853 -0.000000
v 0.000000 0.781853 -0.661232
v 0.661232 0.781853 0.000000
v -0.000000 0.781854 0.661232
v -0.396765 0.489479 0.396765
v -0.396765 0.489479 -0.396765
v 0.396765 0.489479 0.396765
v 0.396765 0.489479 -0.396765
v -0.477318 1.781956 -0.000000
v -0.000000 1.781956 -0.477318
v 0.477318 1.781956 -0.000000
v -0.000000 1.781956 0.477318
v 0.494532 1.300295 0.494532
v -0.494532 1.300295 0.494532
v -0.494532 1.300295 -0.494532
v 0.494532 1.300295 -0.494532
v -0.136076 -0.281181 0.136076
v 0.136076 -0.281181 0.136076
v 0.136076 -0.281181 -0.136076
v -0.136076 -0.281181 -0.136076
v -0.255278 -0.006326 -0.000000
v -0.000000 -0.006326 -0.255278
v 0.255278 -0.006326 -0.000000
v 0.000000 -0.006326 0.255278
v 0.000000 -0.281252 0.186201
v -0.000000 0.305482 -0.323990
v -0.545552 0.489479 -0.000000
v 0.323990 0.305482 -0.000000
v -0.323990 0.305482 0.000000
v -0.000000 0.305482 0.323990
v -0.000000 1.308464 0.680510
v -0.000000 0.489479 0.545552
v 0.000000 0.489479 -0.545552
v 0.545552 0.489479 0.000000
v -0.000000 1.955832 0.000000
v -0.000000 1.308464 -0.680510
v 0.680510 1.308464 -0.000000
v -0.680510 1.308464 0.000000
v -0.000000 -0.281252 -0.186201
v -0.186201 -0.281252 0.000000
v 0.186201 -0.281252 -0.000000
vn -0.6753 -0.2967 0.6753
vn -0.7028 -0.1107 0.7028
vn -0.9942 -0.1077 -0.0000
vn -0.9565 -0.2916 -0.0000
vn -0.6816 -0.2662 0.6816
vn -0.9662 -0.2578 -0.0000
vn -0.6816 -0.2662 -0.6816
vn -0.7028 -0.1107 -0.7028
vn -0.6753 -0.2967 -0.6753
vn -0.0000 -0.1077 -0.9942
vn -0.0000 -0.2916 -0.9565
vn -0.0000 -0.2578 -0.9662
vn 0.6816 -0.2662 -0.6816
vn 0.7028 -0.1107 -0.7028
vn 0.6753 -0.2967 -0.6753
vn 0.9942 -0.1077 -0.0000
vn 0.9565 -0.2916 -0.0000
vn 0.9662 -0.2578 -0.0000
vn 0.6816 -0.2662 0.6816
vn 0.7028 -0.1107 0.7028
vn 0.6753 -0.2967 0.6753
vn -0.0000 -0.1077 0.9942
vn -0.0000 -0.2916 0.9565
vn -0.0000 -0.2578 0.9662
vn -0.0000 -0.4834 0.8754
vn 0.6145 -0.4947 0.6145
vn -0.6145 -0.4947 0.6145
vn -0.0000 -0.6388 -0.7694
vn 0.5348 -0.6542 -0.5348
vn -0.5348 -0.6542 -0.5348
vn -0.4443 -0.7780 -0.4443
vn -0.0000 -0.7699 -0.6382
vn 0.4443 -0.7780 -0.4443
vn -0.6382 -0.7699 -0.0000
vn -0.8325 -0.5541 -0.0000
vn -0.5862 -0.5591 -0.5862
vn -0.4443 -0.7780 0.4443
vn -0.5862 -0.5591 0.5862
vn -0.6926 -0.2015 0.6926
vn -0.9802 -0.1979 -0.0000
vn -0.6926 -0.2015 -0.6926
vn 0.7694 -0.6388 -0.0000
vn 0.5348 -0.6542 0.5348
vn 0.6382 -0.7699 -0.0000
vn 0.4443 -0.7780 0.4443
vn -0.7694 -0.6388 -0.0000
vn -0.5348 -0.6542 0.5348
vn -0.0000 -0.6388 0.7694
vn -0.0000 -0.7699 0.6382
vn -0.0000 -0.1979 0.9802
vn -0.0000 0.1628 0.9867
vn -0.6975 0.1646 0.6975
vn 0.6926 -0.2015 0.6926
vn 0.6975 0.1646 0.6975
vn 0.5635 0.6041 0.5635
vn -0.0000 0.7247 0.6891
vn -0.5635 0.6041 0.5635
vn -0.0000 -0.5541 0.8325
vn 0.5862 -0.5591 0.5862
vn -0.0000 -0.5541 -0.8325
vn 0.5862 -0.5591 -0.5862
vn -0.0000 -0.1979 -0.9802
vn 0.6926 -0.2015 -0.6926
vn 0.8325 -0.5541 -0.0000
vn 0.9802 -0.1979 -0.0000
vn 0.5635 0.6041 -0.5635
vn -0.0000 0.7247 -0.6891
vn -0.0000 1.0000 -0.0000
vn 0.6891 0.7247 -0.0000
vn -0.5635 0.6041 -0.5635
vn -0.6891 0.7247 -0.0000
vn -0.0000 0.1628 -0.9867
vn 0.6975 0.1646 -0.6975
vn -0.6975 0.1646 -0.6975
vn 0.9867 0.1628 -0.0000
vn -0.9867 0.1628 -0.0000
vn -0.0000 -0.4834 -0.8754
vn -0.6145 -0.4947 -0.6145
vn 0.6145 -0.4947 -0.6145
vn -0.8754 -0.4834 -0.0000
vn 0.8754 -0.4834 -0.0000
vt 0.297969 0.821963
vt 0.479017 0.953726
vt 0.463532 0.832631
vt 0.279091 0.942591
vt 0.946173 0.818047
vt 0.600818 0.953726
vt 0.951535 0.938911
vt 0.607195 0.832631
vt 0.419647 0.823589
vt 0.769518 0.953726
vt 0.775895 0.832631
vt 0.422610 0.944508
vt 0.824478 0.818047
vt 0.647717 0.953726
vt 0.807997 0.938911
vt 0.632232 0.832631
vt 0.256770 0.916001
vt 0.154272 0.827512
vt 0.189131 0.920469
vt 0.096175 0.955327
vt 0.032172 0.940526
vt 0.061316 0.862371
vt 0.098916 0.726423
vt 0.845218 0.386246
vt 0.700526 0.409986
vt 0.870435 0.025554
vt 0.699229 0.747536
vt 0.313656 0.376008
vt 0.100199 0.392184
vt 0.338873 0.015316
vt 0.364674 0.689153
vt 0.422610 0.463572
vt 0.568271 0.354031
vt 0.391492 0.686858
vt 0.968675 0.435080
vt 0.588802 0.060374
vt 0.567855 0.704893
vt 0.967620 0.709897
vt 0.036709 0.343793
vt 0.365719 0.417031
vt 0.598973 0.481607
vt 0.057240 0.050136
vt 0.548146 0.950385
vt 0.471311 0.894528
vt 0.288445 0.880891
vt 0.545069 0.828691
vt 0.604233 0.894528
vt 0.948932 0.877094
vt 0.876929 0.817445
vt 0.869862 0.938201
vt 0.816125 0.877094
vt 0.640010 0.894528
vt 0.716846 0.950385
vt 0.713769 0.828691
vt 0.772933 0.894528
vt 0.421234 0.882665
vt 0.350424 0.822062
vt 0.340962 0.942707
vt 0.258995 0.822681
vt 0.189131 0.867454
vt 0.149189 0.955327
vt 0.061316 0.915385
vt 0.033907 0.867750
vt 0.101258 0.827512
vt 0.958989 0.974077
vt 0.621735 0.795789
vt 0.175177 0.914126
vt 0.790435 0.974077
vt 0.621735 0.795789
vt 0.102517 0.941373
vt 0.790435 0.795789
vt 0.429365 0.979770
vt 0.075270 0.868714
vt 0.453035 0.795789
vt 0.260834 0.977518
vt 0.147930 0.841466
vt 0.850124 0.180452
vt 0.698201 0.602042
vt 0.318562 0.170214
vt 0.097897 0.582355
vt 0.226608 0.931114
vt 0.941258 0.370172
vt 0.163457 0.807305
vt 0.015392 0.684770
vt 0.962063 0.072582
vt 0.209338 0.929654
vt 0.615948 0.426974
vt 0.016451 0.409005
vt 0.041109 0.853186
vt 0.430501 0.062344
vt 0.086990 0.975534
vt 0.614879 0.705471
vt 0.008650 0.952312
vt 0.409695 0.359934
vt 0.392766 0.581611
vt 0.549300 0.194074
vt 0.481302 0.728712
vt 0.991507 0.584040
vt 0.607776 0.603598
vt 0.017738 0.183836
vt 0.388327 0.564530
vt 0.519240 0.456496
vt 0.249769 0.392134
vt 0.178632 0.001886
vt 0.248450 0.735852
vt 0.684262 0.383043
vt 0.851577 0.409937
vt 0.710194 0.012124
vt 0.850244 0.757058
vt 0.152700 0.372805
vt 0.315488 0.795803
vt 0.488686 0.981855
vt 0.412815 0.797104
vt 0.754811 0.981855
vt 0.841476 0.791657
vt 0.657386 0.981855
vt 0.938816 0.791657
vt 0.586111 0.981855
vt 0.546751 0.890882
vt 0.873365 0.876437
vt 0.715451 0.890882
vt 0.345690 0.880999
vt 0.357565 0.795871
vt 0.863082 0.973244
vt 0.143956 0.941373
vt 0.209338 0.859877
vt 0.229537 0.808287
vt 0.945306 0.200381
vt 0.717482 0.791162
vt 0.075270 0.910152
vt 0.548782 0.791162
vt 0.175177 0.872687
vt 0.333487 0.977655
vt 0.106491 0.841466
vt 0.249755 0.587813
vt 0.093681 0.807305
vt 0.014552 0.565907
vt 0.156766 0.975534
vt 0.614030 0.585430
vt 0.041109 0.922963
vt 0.010934 0.856525
vt 0.413743 0.190143
vt 0.510845 0.610173
vt 0.851563 0.607553
vt 0.155201 0.161000
vt 0.686764 0.171238
vt 0.883549 0.791162
vt 0.543865 0.979252
vt 0.712565 0.979252
s 1
f 1/2/1 22/44/2 61/119/3 21/43/4
f 22/44/2 2/3/5 23/46/6 61/119/3
f 61/119/3 23/46/6 4/8/7 24/47/8
f 21/43/4 61/119/3 24/47/8 3/6/9
f 3/5/9 24/48/8 62/120/10 25/49/11
f 24/48/8 4/7/7 26/50/12 62/120/10
f 62/120/10 26/50/12 8/15/13 27/51/14
f 25/49/11 62/120/10 27/51/14 7/13/15
f 7/14/15 27/52/14 63/121/16 28/53/17
f 27/52/14 8/16/13 29/54/18 63/121/16
f 63/121/16 29/54/18 6/11/19 30/55/20
f 28/53/17 63/121/16 30/55/20 5/10/21
f 5/9/21 30/56/20 64/122/22 31/57/23
f 30/56/20 6/12/19 32/58/24 64/122/22
f 64/122/22 32/58/24 2/4/5 22/45/2
f 31/57/23 64/122/22 22/45/2 1/1/1
f 5/9/21 31/57/23 65/123/25 58/113/26
f 31/57/23 1/1/1 57/111/27 65/123/25
f 8/15/13 26/50/12 66/124/28 38/68/29
f 26/50/12 4/7/7 37/65/30 66/124/28
f 66/125/28 37/67/30 10/19/31 34/61/32
f 38/70/29 66/125/28 34/61/32 11/20/33
f 10/19/31 33/60/34 67/126/35 46/86/36
f 33/59/34 9/17/37 45/81/38 67/127/35
f 67/128/35 45/82/38 13/24/39 41/77/40
f 46/85/36 67/128/35 41/77/40 14/26/41
f 6/11/19 29/54/18 68/129/42 39/71/43
f 29/54/18 8/16/13 38/69/29 68/129/42
f 68/130/42 38/70/29 11/20/33 35/62/44
f 39/73/43 68/130/42 35/62/44 12/22/45
f 4/8/7 23/46/6 69/131/46 37/66/30
f 23/46/6 2/3/5 40/74/47 69/131/46
f 69/132/46 40/76/47 9/18/37 33/60/34
f 37/67/30 69/132/46 33/60/34 10/19/31
f 2/4/5 32/58/24 70/133/48 40/75/47
f 32/58/24 6/12/19 39/72/43 70/133/48
f 70/134/48 39/73/43 12/22/45 36/64/49
f 40/76/47 70/134/48 36/64/49 9/18/37
f 13/23/39 44/80/50 71/135/51 54/105/52
f 44/80/50 16/29/53 53/103/54 71/135/51
f 71/135/51 53/103/54 20/40/55 52/101/56
f 54/105/52 71/135/51 52/101/56 17/31/57
f 9/18/37 36/64/49 72/136/58 45/83/38
f 36/64/49 12/22/45 47/89/59 72/136/58
f 72/137/58 47/88/59 16/29/53 44/80/50
f 45/84/38 72/137/58 44/80/50 13/23/39
f 11/20/33 34/61/32 73/138/60 48/91/61
f 34/61/32 10/19/31 46/86/36 73/138/60
f 73/139/60 46/87/36 14/25/41 42/78/62
f 48/92/61 73/139/60 42/78/62 15/27/63
f 12/22/45 35/62/44 74/140/64 47/89/59
f 35/63/44 11/21/33 48/93/61 74/141/64
f 74/142/64 48/94/61 15/28/63 43/79/65
f 47/90/59 74/142/64 43/79/65 16/30/53
f 19/37/66 50/97/67 75/143/68 51/99/69
f 50/97/67 18/34/70 49/95/71 75/143/68
f 75/143/68 49/95/71 17/32/57 52/102/56
f 51/99/69 75/143/68 52/102/56 20/41/55
f 15/27/63 42/78/62 76/144/72 56/109/73
f 42/78/62 14/25/41 55/107/74 76/144/72
f 76/144/72 55/107/74 18/35/70 50/98/67
f 56/109/73 76/144/72 50/98/67 19/38/66
f 16/30/53 43/79/65 77/145/75 53/104/54
f 43/79/65 15/28/63 56/110/73 77/145/75
f 77/145/75 56/110/73 19/39/66 51/100/69
f 53/104/54 77/145/75 51/100/69 20/42/55
f 14/26/41 41/77/40 78/146/76 55/108/74
f 41/77/40 13/24/39 54/106/52 78/146/76
f 78/146/76 54/106/52 17/33/57 49/96/71
f 55/108/74 78/146/76 49/96/71 18/36/70
f 3/5/9 25/49/11 79/147/77 60/117/78
f 25/49/11 7/13/15 59/115/79 79/147/77
f 1/2/1 21/43/4 80/148/80 57/112/27
f 21/43/4 3/6/9 60/118/78 80/148/80
f 7/14/15 28/53/17 81/149/81 59/116/79
f 28/53/17 5/10/21 58/114/26 81/149/81
