# Blender 3.3.6
# www.blender.org
mtllib ticket.mtl
o Cube
v 1.189710 -0.058643 -2.522876
v 1.189539 -0.067888 -2.522104
v 1.424181 0.145868 -0.021884
v 1.424010 0.136623 -0.021112
v -1.424010 0.009702 -2.283424
v -1.424181 0.000457 -2.282653
v -1.189539 0.214213 0.007889
v -1.189710 0.204968 0.008661
v -1.271469 0.422296 1.066622
v -1.270727 0.431530 1.067159
v 1.344053 0.215574 1.077482
v 1.343310 0.206341 1.076945
v -1.344053 0.328697 2.688294
v -1.343310 0.337931 2.688831
v 1.271469 0.121975 2.787971
v 1.270727 0.112742 2.787434
vn 0.0216 0.9960 -0.0871
vn -0.0216 -0.9960 0.0871
vn 0.0809 0.9949 0.0594
vn -0.0534 -0.9904 0.1278
vn 0.0534 0.9904 -0.1277
vn -0.0809 -0.9949 -0.0594
vt 0.999275 0.000984
vt 0.999116 1.009609
vt 0.543040 -0.000628
vt 0.542882 1.002966
vt 0.999116 1.009609
vt 0.999275 0.000984
vt 0.542882 1.002966
vt 0.543040 -0.000628
vt 0.309020 0.004915
vt 0.310123 1.003427
vt 0.309020 0.004915
vt 0.310123 1.003427
vt 0.002830 0.000498
vt 0.000150 1.004042
vt 0.002830 0.000498
vt 0.000150 1.004042
s 0
usemtl Material
f 1/1/1 5/5/1 7/7/1 3/3/1
f 6/6/2 2/2/2 4/4/2 8/8/2
f 11/11/3 10/10/3 14/14/3 15/15/3
f 8/8/4 4/4/4 12/12/4 9/9/4
f 3/3/5 7/7/5 10/10/5 11/11/5
f 9/9/6 12/12/6 16/16/6 13/13/6
