# Blender 3.3.6
# www.blender.org
mtllib Sign2.mtl
o Cylinder
v 0.049581 -0.000000 -1.000000
v 0.049581 -0.195090 -0.980785
v 0.049581 -0.382683 -0.923880
v 0.049581 -0.555570 -0.831470
v 0.049581 -0.707107 -0.707107
v 0.049581 -0.831470 -0.555570
v 0.049581 -0.923880 -0.382683
v 0.049581 -0.980785 -0.195090
v 0.049581 -1.000000 0.000000
v 0.049581 -0.980785 0.195090
v 0.049581 -0.923880 0.382683
v 0.049581 -0.831470 0.555570
v 0.049581 -0.707107 0.707107
v 0.049581 -0.555570 0.831470
v 0.049581 -0.382683 0.923880
v 0.049581 -0.195090 0.980785
v 0.049581 -0.000000 1.000000
v 0.049581 0.195090 0.980785
v 0.049581 0.382683 0.923880
v 0.049581 0.555570 0.831470
v 0.049581 0.707107 0.707107
v 0.049581 0.831470 0.555570
v 0.049581 0.923880 0.382683
v 0.049581 0.980785 0.195090
v 0.049581 1.000000 0.000000
v 0.049581 0.980785 -0.195090
v 0.049581 0.923880 -0.382683
v 0.049581 0.831470 -0.555570
v 0.049581 0.707107 -0.707107
v 0.049581 0.555570 -0.831470
v 0.049581 0.382683 -0.923880
v 0.049581 0.195090 -0.980785
vn 1.0000 -0.0000 -0.0000
vt 0.950025 0.490114
vt 0.942883 0.403358
vt 0.918954 0.319663
vt 0.879156 0.242244
vt 0.825020 0.174077
vt 0.758625 0.117781
vt 0.682523 0.075520
vt 0.599638 0.048918
vt 0.513157 0.038997
vt 0.426401 0.046139
vt 0.342706 0.070068
vt 0.265287 0.109865
vt 0.197120 0.164002
vt 0.140824 0.230397
vt 0.098563 0.306499
vt 0.071961 0.389384
vt 0.062040 0.475865
vt 0.069181 0.562621
vt 0.093111 0.646316
vt 0.132908 0.723735
vt 0.187045 0.791902
vt 0.253440 0.848198
vt 0.329542 0.890459
vt 0.412427 0.917061
vt 0.498908 0.926982
vt 0.585664 0.919840
vt 0.669359 0.895911
vt 0.746778 0.856114
vt 0.814945 0.801977
vt 0.871241 0.735582
vt 0.913502 0.659480
vt 0.940104 0.576595
s 0
usemtl Material.001
f 2/2/1 1/1/1 32/32/1 31/31/1 30/30/1 29/29/1 28/28/1 27/27/1 26/26/1 25/25/1 24/24/1 23/23/1 22/22/1 21/21/1 20/20/1 19/19/1 18/18/1 17/17/1 16/16/1 15/15/1 14/14/1 13/13/1 12/12/1 11/11/1 10/10/1 9/9/1 8/8/1 7/7/1 6/6/1 5/5/1 4/4/1 3/3/1
