# Blender 3.3.6
# www.blender.org
mtllib Brick.mtl
o Cube
v 1.936134 0.229484 -1.000000
v 2.361695 -1.000000 -1.411703
v 1.936134 0.229484 0.622983
v 2.361695 -1.000000 0.840879
v -1.000000 1.000000 -1.000000
v -1.405876 -1.000000 -1.411703
v -1.000000 1.000000 0.622983
v -1.405876 -1.000000 1.000000
vn 0.2538 0.9672 -0.0000
vn 0.0442 0.1812 0.9824
vn -0.9800 0.1989 -0.0000
vn 0.9450 0.3271 -0.0000
vn 0.0284 0.2471 -0.9686
vt 0.243937 0.274639
vt -0.007734 -0.004941
vt 0.190247 0.667690
vt -0.003812 1.012832
vt 0.770158 0.394429
vt 0.999905 0.000095
vt 0.779076 0.723849
vt 0.992093 0.996261
s 0
usemtl Material
f 1/1/1 5/5/1 7/7/1 3/3/1
f 4/4/2 3/3/2 7/7/2 8/8/2
f 8/8/3 7/7/3 5/5/3 6/6/3
f 2/2/4 1/1/4 3/3/4 4/4/4
f 6/6/5 5/5/5 1/1/5 2/2/5
