# Blender 3.3.6
# www.blender.org
mtllib Battery.mtl
o Cylinder
v 0.000000 -1.374106 -1.000000
v 0.000000 1.374106 -1.000000
v 0.195090 -1.374106 -0.980785
v 0.195090 1.374106 -0.980785
v 0.382683 -1.374106 -0.923880
v 0.382683 1.374106 -0.923880
v 0.555570 -1.374106 -0.831470
v 0.555570 1.374106 -0.831470
v 0.707107 -1.374106 -0.707107
v 0.707107 1.374106 -0.707107
v 0.831470 -1.374106 -0.555570
v 0.831470 1.374106 -0.555570
v 0.923880 -1.374106 -0.382683
v 0.923880 1.374106 -0.382683
v 0.980785 -1.374106 -0.195090
v 0.980785 1.374106 -0.195090
v 1.000000 -1.374106 0.000000
v 1.000000 1.374106 0.000000
v 0.980785 -1.374106 0.195090
v 0.980785 1.374106 0.195090
v 0.923880 -1.374106 0.382683
v 0.923880 1.374106 0.382683
v 0.831470 -1.374106 0.555570
v 0.831470 1.374106 0.555570
v 0.707107 -1.374106 0.707107
v 0.707107 1.374106 0.707107
v 0.555570 -1.374106 0.831470
v 0.555570 1.374106 0.831470
v 0.382683 -1.374106 0.923880
v 0.382683 1.374106 0.923880
v 0.195090 -1.374106 0.980785
v 0.195090 1.374106 0.980785
v 0.000000 -1.374106 1.000000
v 0.000000 1.374106 1.000000
v -0.195090 -1.374106 0.980785
v -0.195090 1.374106 0.980785
v -0.382683 -1.374106 0.923880
v -0.382683 1.374106 0.923880
v -0.555570 -1.374106 0.831470
v -0.555570 1.374106 0.831470
v -0.707107 -1.374106 0.707107
v -0.707107 1.374106 0.707107
v -0.831470 -1.374106 0.555570
v -0.831470 1.374106 0.555570
v -0.923880 -1.374106 0.382683
v -0.923880 1.374106 0.382683
v -0.980785 -1.374106 0.195090
v -0.980785 1.374106 0.195090
v -1.000000 -1.374106 0.000000
v -1.000000 1.374106 0.000000
v -0.980785 -1.374106 -0.195090
v -0.980785 1.374106 -0.195090
v -0.923880 -1.374106 -0.382683
v -0.923880 1.374106 -0.382683
v -0.831470 -1.374106 -0.555570
v -0.831470 1.374106 -0.555570
v -0.707107 -1.374106 -0.707107
v -0.707107 1.374106 -0.707107
v -0.555570 -1.374106 -0.831470
v -0.555570 1.374106 -0.831470
v -0.382683 -1.374106 -0.923880
v -0.382683 1.374106 -0.923880
v -0.195090 -1.374106 -0.980785
v -0.195090 1.374106 -0.980785
v 0.047995 1.387016 -0.241286
v 0.000000 1.387016 -0.246013
v 0.094145 1.387016 -0.227286
v 0.136678 1.387016 -0.204552
v 0.173957 1.387016 -0.173958
v 0.204552 1.387016 -0.136678
v 0.227286 1.387016 -0.094145
v 0.241286 1.387016 -0.047995
v 0.246013 1.387016 -0.000000
v 0.241286 1.387016 0.047995
v 0.227286 1.387016 0.094145
v 0.204552 1.387016 0.136678
v 0.173957 1.387016 0.173957
v 0.136678 1.387016 0.204552
v 0.094145 1.387016 0.227286
v 0.047995 1.387016 0.241286
v 0.000000 1.387016 0.246013
v -0.047995 1.387016 0.241286
v -0.094145 1.387016 0.227286
v -0.136678 1.387016 0.204552
v -0.173957 1.387016 0.173957
v -0.204552 1.387016 0.136678
v -0.227286 1.387016 0.094145
v -0.241286 1.387016 0.047995
v -0.246013 1.387016 -0.000000
v -0.241286 1.387016 -0.047995
v -0.227286 1.387016 -0.094145
v -0.204552 1.387016 -0.136678
v -0.173957 1.387016 -0.173958
v -0.136678 1.387016 -0.204552
v -0.094145 1.387016 -0.227286
v -0.047995 1.387016 -0.241286
v 0.044004 1.515532 -0.221221
v -0.000000 1.515532 -0.225555
v 0.086316 1.515532 -0.208385
v 0.125311 1.515532 -0.187542
v 0.159491 1.515532 -0.159491
v 0.187542 1.515532 -0.125311
v 0.208385 1.515532 -0.086316
v 0.221221 1.515532 -0.044004
v 0.225555 1.515532 -0.000000
v 0.221221 1.515532 0.044004
v 0.208385 1.515532 0.086316
v 0.187542 1.515532 0.125311
v 0.159491 1.515532 0.159491
v 0.125311 1.515532 0.187542
v 0.086316 1.515532 0.208385
v 0.044004 1.515532 0.221221
v -0.000000 1.515532 0.225555
v -0.044004 1.515532 0.221221
v -0.086316 1.515532 0.208385
v -0.125311 1.515532 0.187542
v -0.159491 1.515532 0.159491
v -0.187542 1.515532 0.125311
v -0.208385 1.515532 0.086316
v -0.221221 1.515532 0.044004
v -0.225555 1.515532 -0.000000
v -0.221221 1.515532 -0.044004
v -0.208385 1.515532 -0.086316
v -0.187542 1.515532 -0.125311
v -0.159491 1.515532 -0.159491
v -0.125311 1.515532 -0.187542
v -0.086316 1.515532 -0.208385
v -0.044004 1.515532 -0.221221
vn 0.0980 -0.0000 -0.9952
vn 0.2903 -0.0000 -0.9569
vn 0.4714 -0.0000 -0.8819
vn 0.6344 -0.0000 -0.7730
vn 0.7730 -0.0000 -0.6344
vn 0.8819 -0.0000 -0.4714
vn 0.9569 -0.0000 -0.2903
vn 0.9952 -0.0000 -0.0980
vn 0.9952 -0.0000 0.0980
vn 0.9569 -0.0000 0.2903
vn 0.8819 -0.0000 0.4714
vn 0.7730 -0.0000 0.6344
vn 0.6344 -0.0000 0.7730
vn 0.4714 -0.0000 0.8819
vn 0.2903 -0.0000 0.9569
vn 0.0980 -0.0000 0.9952
vn -0.0980 -0.0000 0.9952
vn -0.2903 -0.0000 0.9569
vn -0.4714 -0.0000 0.8819
vn -0.6344 -0.0000 0.7730
vn -0.7730 -0.0000 0.6344
vn -0.8819 -0.0000 0.4714
vn -0.9569 -0.0000 0.2903
vn -0.9952 -0.0000 0.0980
vn -0.9952 -0.0000 -0.0980
vn -0.9569 -0.0000 -0.2903
vn -0.8819 -0.0000 -0.4714
vn -0.7730 -0.0000 -0.6344
vn -0.6344 -0.0000 -0.7730
vn -0.4714 -0.0000 -0.8819
vn -0.0109 0.9999 0.0133
vn -0.2903 -0.0000 -0.9569
vn -0.0980 -0.0000 -0.9952
vn -0.0000 -1.0000 -0.0000
vn -0.2867 0.1565 -0.9452
vn -0.0109 0.9999 -0.0133
vn 0.0165 0.9999 -0.0050
vn 0.0017 0.9999 0.0171
vn -0.0171 0.9999 -0.0017
vn 0.0081 0.9999 -0.0152
vn 0.0133 0.9999 0.0109
vn -0.0133 0.9999 0.0109
vn -0.0081 0.9999 -0.0152
vn 0.0171 0.9999 -0.0017
vn -0.0017 0.9999 0.0171
vn -0.0165 0.9999 -0.0050
vn 0.0109 0.9999 -0.0133
vn 0.0109 0.9999 0.0133
vn -0.0152 0.9999 0.0081
vn -0.0050 0.9999 -0.0165
vn 0.0171 0.9999 0.0017
vn -0.0050 0.9999 0.0165
vn -0.0152 0.9999 -0.0081
vn 0.0133 0.9999 -0.0109
vn 0.0081 0.9999 0.0152
vn -0.0165 0.9999 0.0050
vn 0.0017 0.9999 -0.0171
vn -0.0017 0.9999 -0.0171
vn 0.0165 0.9999 0.0050
vn -0.0081 0.9999 0.0152
vn -0.0133 0.9999 -0.0109
vn 0.0152 0.9999 -0.0081
vn 0.0050 0.9999 0.0165
vn -0.0171 0.9999 0.0017
vn 0.0050 0.9999 -0.0165
vn 0.0152 0.9999 0.0081
vn -0.0000 1.0000 -0.0000
vn -0.2867 0.1565 0.9452
vn 0.7635 0.1565 -0.6266
vn -0.0968 0.1565 -0.9829
vn -0.4656 0.1565 0.8711
vn 0.8711 0.1565 -0.4656
vn -0.6266 0.1565 0.7635
vn 0.9452 0.1565 -0.2867
vn -0.7635 0.1565 0.6266
vn 0.9829 0.1565 -0.0968
vn -0.8711 0.1565 0.4656
vn 0.9829 0.1565 0.0968
vn -0.9452 0.1565 0.2867
vn 0.9452 0.1565 0.2867
vn -0.9829 0.1565 0.0968
vn 0.8711 0.1565 0.4656
vn -0.9829 0.1565 -0.0968
vn 0.7635 0.1565 0.6266
vn -0.9452 0.1565 -0.2867
vn 0.6266 0.1565 0.7635
vn -0.8711 0.1565 -0.4656
vn 0.4656 0.1565 0.8711
vn 0.0968 0.1565 -0.9829
vn -0.7635 0.1565 -0.6266
vn 0.2867 0.1565 0.9452
vn 0.2867 0.1565 -0.9452
vn -0.6266 0.1565 -0.7635
vn 0.0968 0.1565 0.9829
vn 0.4656 0.1565 -0.8711
vn -0.4656 0.1565 -0.8711
vn -0.0968 0.1565 0.9829
vn 0.6266 0.1565 -0.7635
vt 0.566635 0.838824
vt 0.002659 0.601795
vt 0.566635 0.421493
vt 0.002595 0.185277
vt 0.606647 0.839030
vt 0.010277 0.563494
vt 0.606647 0.421545
vt 0.002595 0.225294
vt 0.644338 0.839434
vt 0.025222 0.527415
vt 0.644338 0.421647
vt 0.010401 0.264541
vt 0.678259 0.840021
vt 0.046917 0.494945
vt 0.678259 0.421796
vt 0.025715 0.301511
vt 0.707107 0.840768
vt 0.735954 0.002209
vt 0.074531 0.467332
vt 0.707107 0.421984
vt 0.735954 0.421984
vt 0.047947 0.334784
vt 0.707107 0.003718
vt 0.107001 0.445636
vt 0.707107 0.422173
vt 0.076243 0.363080
vt 0.673186 0.004904
vt 0.143079 0.430692
vt 0.673186 0.422322
vt 0.109515 0.385311
vt 0.635495 0.005721
vt 0.181380 0.423073
vt 0.635495 0.422424
vt 0.146485 0.400625
vt 0.595482 0.006138
vt 0.220432 0.423073
vt 0.595482 0.422476
vt 0.185733 0.408432
vt 0.554686 0.006138
vt 0.258733 0.430692
vt 0.554685 0.422476
vt 0.225749 0.408432
vt 0.520532 0.005721
vt 0.294811 0.445636
vt 0.520532 0.422424
vt 0.264996 0.400625
vt 0.488701 0.004904
vt 0.327281 0.467332
vt 0.488701 0.422322
vt 0.301967 0.385311
vt 0.466498 0.003718
vt 0.354895 0.494945
vt 0.466498 0.422173
vt 0.335239 0.363080
vt 0.437651 0.002209
vt 0.707107 0.840021
vt 0.376590 0.527415
vt 0.437651 0.421984
vt 0.707107 0.421796
vt 0.363535 0.334784
vt 0.741028 0.839434
vt 0.391535 0.563494
vt 0.741028 0.421647
vt 0.385767 0.301511
vt 0.778719 0.839030
vt 0.399153 0.601795
vt 0.778719 0.421545
vt 0.401080 0.264541
vt 0.818731 0.838824
vt 0.399153 0.640846
vt 0.818731 0.421493
vt 0.408887 0.225294
vt 0.859528 0.838824
vt 0.391535 0.679147
vt 0.859528 0.421493
vt 0.408887 0.185277
vt 0.899540 0.839030
vt 0.376590 0.715226
vt 0.899540 0.421545
vt 0.401080 0.146030
vt 0.937231 0.839434
vt 0.354895 0.747695
vt 0.937231 0.421647
vt 0.385767 0.109060
vt 0.969602 0.840021
vt 0.327281 0.775309
vt 0.969602 0.421796
vt 0.363535 0.075787
vt 0.998450 0.840768
vt 0.996899 0.003718
vt 0.294811 0.797005
vt 0.998450 0.421984
vt 0.996899 0.422173
vt 0.335239 0.047492
vt 0.962978 0.004904
vt 0.258732 0.811949
vt 0.962978 0.422322
vt 0.301967 0.025260
vt 0.928388 0.005721
vt 0.220432 0.819567
vt 0.928388 0.422424
vt 0.264996 0.009946
vt 0.888375 0.006138
vt 0.181380 0.819567
vt 0.888375 0.422476
vt 0.225749 0.002139
vt 0.847579 0.006138
vt 0.143079 0.811949
vt 0.847579 0.422476
vt 0.185733 0.002139
vt 0.807566 0.005721
vt 0.107001 0.797005
vt 0.807566 0.422424
vt 0.146485 0.009946
vt 0.769875 0.004904
vt 0.074531 0.775309
vt 0.769875 0.422322
vt 0.109515 0.025260
vt 0.735954 0.003718
vt 0.430815 0.840021
vt 0.046917 0.747695
vt 0.735954 0.422173
vt 0.430815 0.421796
vt 0.076243 0.047492
vt 0.464736 0.839434
vt 0.025222 0.715225
vt 0.464736 0.421647
vt 0.047947 0.075787
vt 0.488755 0.839030
vt 0.010277 0.679147
vt 0.488755 0.421545
vt 0.025715 0.109060
vt 0.525838 0.838824
vt 0.002659 0.640846
vt 0.525838 0.421493
vt 0.010401 0.146030
vt 0.155764 0.210208
vt 0.145545 0.879629
vt 0.155764 0.200363
vt 0.145435 0.869784
vt 0.157685 0.219863
vt 0.145870 0.888906
vt 0.161452 0.228958
vt 0.146399 0.897257
vt 0.166921 0.237144
vt 0.168463 0.832302
vt 0.147110 0.904362
vt 0.173883 0.244105
vt 0.167752 0.839408
vt 0.182068 0.249574
vt 0.167223 0.847759
vt 0.191163 0.253342
vt 0.166898 0.857035
vt 0.200819 0.255262
vt 0.166788 0.866881
vt 0.210663 0.255262
vt 0.166898 0.876917
vt 0.220319 0.253342
vt 0.167223 0.886757
vt 0.229414 0.249574
vt 0.167752 0.896025
vt 0.237599 0.244105
vt 0.168463 0.904362
vt 0.104404 0.832302
vt 0.244560 0.237144
vt 0.103693 0.839408
vt 0.250030 0.228958
vt 0.103164 0.847759
vt 0.253797 0.219863
vt 0.102839 0.857035
vt 0.255717 0.210208
vt 0.102729 0.866881
vt 0.255717 0.200363
vt 0.102839 0.876917
vt 0.253797 0.190708
vt 0.103164 0.886757
vt 0.250030 0.181613
vt 0.103693 0.896025
vt 0.244560 0.173427
vt 0.104404 0.904362
vt 0.125757 0.832303
vt 0.237599 0.166466
vt 0.125046 0.839408
vt 0.229414 0.160997
vt 0.124517 0.847759
vt 0.220319 0.157229
vt 0.124192 0.857035
vt 0.210663 0.155309
vt 0.124082 0.866881
vt 0.200819 0.155309
vt 0.124192 0.876917
vt 0.191163 0.157229
vt 0.124517 0.886757
vt 0.182068 0.160997
vt 0.125046 0.896025
vt 0.173883 0.166466
vt 0.125757 0.904362
vt 0.147110 0.832302
vt 0.166921 0.173427
vt 0.146399 0.840640
vt 0.161452 0.181613
vt 0.145870 0.849907
vt 0.157685 0.190708
vt 0.145545 0.859748
vt 0.019783 0.842325
vt 0.165353 0.878610
vt 0.026702 0.837701
vt 0.165252 0.869584
vt 0.013898 0.848210
vt 0.165651 0.887115
vt 0.009274 0.855129
vt 0.166136 0.894772
vt 0.006090 0.862818
vt 0.188141 0.835378
vt 0.166788 0.901286
vt 0.004466 0.870980
vt 0.187489 0.841893
vt 0.004466 0.879302
vt 0.187004 0.849549
vt 0.006090 0.887464
vt 0.186706 0.858055
vt 0.009274 0.895153
vt 0.186605 0.867081
vt 0.013898 0.902072
vt 0.186706 0.876283
vt 0.019783 0.907957
vt 0.187004 0.885305
vt 0.026702 0.912580
vt 0.187489 0.893801
vt 0.034391 0.915765
vt 0.188141 0.901446
vt 0.124082 0.835378
vt 0.042553 0.917389
vt 0.123430 0.841893
vt 0.050875 0.917389
vt 0.122945 0.849549
vt 0.059037 0.915765
vt 0.122647 0.858055
vt 0.066726 0.912580
vt 0.122546 0.867081
vt 0.073645 0.907957
vt 0.122647 0.876283
vt 0.079530 0.902072
vt 0.122945 0.885305
vt 0.084153 0.895153
vt 0.123430 0.893801
vt 0.087338 0.887464
vt 0.124082 0.901446
vt 0.145435 0.835378
vt 0.088962 0.879302
vt 0.144783 0.841893
vt 0.088962 0.870980
vt 0.144298 0.849549
vt 0.087338 0.862818
vt 0.144000 0.858055
vt 0.084153 0.855129
vt 0.143899 0.867081
vt 0.079530 0.848210
vt 0.144000 0.876283
vt 0.073645 0.842325
vt 0.144298 0.885305
vt 0.066726 0.837701
vt 0.144783 0.893801
vt 0.059037 0.834517
vt 0.145435 0.901446
vt 0.166788 0.835219
vt 0.050875 0.832893
vt 0.166136 0.842863
vt 0.042553 0.832893
vt 0.165651 0.851360
vt 0.034391 0.834517
vt 0.165353 0.860382
s 0
usemtl Material.001
f 1/1/1 2/3/1 4/7/1 3/5/1
f 3/5/2 4/7/2 6/11/2 5/9/2
f 5/9/3 6/11/3 8/15/3 7/13/3
f 7/13/4 8/15/4 10/20/4 9/17/4
f 9/18/5 10/21/5 12/25/5 11/23/5
f 11/23/6 12/25/6 14/29/6 13/27/6
f 13/27/7 14/29/7 16/33/7 15/31/7
f 15/31/8 16/33/8 18/37/8 17/35/8
f 17/35/9 18/37/9 20/41/9 19/39/9
f 19/39/10 20/41/10 22/45/10 21/43/10
f 21/43/11 22/45/11 24/49/11 23/47/11
f 23/47/12 24/49/12 26/53/12 25/51/12
f 25/51/13 26/53/13 28/58/13 27/55/13
f 27/56/14 28/59/14 30/63/14 29/61/14
f 29/61/15 30/63/15 32/67/15 31/65/15
f 31/65/16 32/67/16 34/71/16 33/69/16
f 33/69/17 34/71/17 36/75/17 35/73/17
f 35/73/18 36/75/18 38/79/18 37/77/18
f 37/77/19 38/79/19 40/83/19 39/81/19
f 39/81/20 40/83/20 42/87/20 41/85/20
f 41/85/21 42/87/21 44/92/21 43/89/21
f 43/90/22 44/93/22 46/97/22 45/95/22
f 45/95/23 46/97/23 48/101/23 47/99/23
f 47/99/24 48/101/24 50/105/24 49/103/24
f 49/103/25 50/105/25 52/109/25 51/107/25
f 51/107/26 52/109/26 54/113/26 53/111/26
f 53/111/27 54/113/27 56/117/27 55/115/27
f 55/115/28 56/117/28 58/122/28 57/119/28
f 57/120/29 58/123/29 60/127/29 59/125/29
f 59/125/30 60/127/30 62/131/30 61/129/30
f 42/88/31 40/84/31 84/177/31 85/179/31
f 61/129/32 62/131/32 64/135/32 63/133/32
f 63/133/33 64/135/33 2/3/33 1/1/33
f 1/2/34 3/6/34 5/10/34 7/14/34 9/19/34 11/24/34 13/28/34 15/32/34 17/36/34 19/40/34 21/44/34 23/48/34 25/52/34 27/57/34 29/62/34 31/66/34 33/70/34 35/74/34 37/78/34 39/82/34 41/86/34 43/91/34 45/96/34 47/100/34 49/104/34 51/108/34 53/112/34 55/116/34 57/121/34 59/126/34 61/130/34 63/134/34
f 96/204/35 95/202/35 127/270/35 128/272/35
f 60/128/36 58/124/36 93/196/36 94/199/36
f 16/34/37 14/30/37 71/150/37 72/152/37
f 34/72/38 32/68/38 80/169/38 81/171/38
f 52/110/39 50/106/39 89/188/39 90/190/39
f 8/16/40 6/12/40 67/141/40 68/143/40
f 26/54/41 24/50/41 76/160/41 77/162/41
f 44/94/42 42/88/42 85/179/42 86/182/42
f 62/132/43 60/128/43 94/199/43 95/201/43
f 18/38/44 16/34/44 72/152/44 73/154/44
f 36/76/45 34/72/45 81/171/45 82/173/45
f 54/114/46 52/110/46 90/190/46 91/192/46
f 10/22/47 8/16/47 68/143/47 69/145/47
f 28/60/48 26/54/48 77/162/48 78/165/48
f 46/98/49 44/94/49 86/182/49 87/184/49
f 64/136/50 62/132/50 95/201/50 96/203/50
f 20/42/51 18/38/51 73/154/51 74/156/51
f 38/80/52 36/76/52 82/173/52 83/175/52
f 56/118/53 54/114/53 91/192/53 92/194/53
f 12/26/54 10/22/54 69/145/54 70/148/54
f 30/64/55 28/60/55 78/165/55 79/167/55
f 48/102/56 46/98/56 87/184/56 88/186/56
f 4/8/57 2/4/57 66/139/57 65/137/57
f 2/4/58 64/136/58 96/203/58 66/139/58
f 22/46/59 20/42/59 74/156/59 75/158/59
f 40/84/60 38/80/60 83/175/60 84/177/60
f 58/124/61 56/118/61 92/194/61 93/196/61
f 14/30/62 12/26/62 70/148/62 71/150/62
f 32/68/63 30/64/63 79/167/63 80/169/63
f 50/106/64 48/102/64 88/186/64 89/188/64
f 6/12/65 4/8/65 65/137/65 67/141/65
f 24/50/66 22/46/66 75/158/66 76/160/66
f 97/205/67 98/207/67 128/271/67 127/269/67 126/267/67 125/264/67 124/262/67 123/260/67 122/258/67 121/256/67 120/254/67 119/252/67 118/250/67 117/247/67 116/245/67 115/243/67 114/241/67 113/239/67 112/237/67 111/235/67 110/233/67 109/230/67 108/228/67 107/226/67 106/224/67 105/222/67 104/220/67 103/218/67 102/216/67 101/213/67 100/211/67 99/209/67
f 83/176/68 82/174/68 114/242/68 115/244/68
f 70/149/69 69/146/69 101/214/69 102/217/69
f 66/140/70 96/204/70 128/272/70 98/208/70
f 84/178/71 83/176/71 115/244/71 116/246/71
f 71/151/72 70/149/72 102/217/72 103/219/72
f 85/180/73 84/178/73 116/246/73 117/248/73
f 72/153/74 71/151/74 103/219/74 104/221/74
f 86/183/75 85/181/75 117/249/75 118/251/75
f 73/155/76 72/153/76 104/221/76 105/223/76
f 87/185/77 86/183/77 118/251/77 119/253/77
f 74/157/78 73/155/78 105/223/78 106/225/78
f 88/187/79 87/185/79 119/253/79 120/255/79
f 75/159/80 74/157/80 106/225/80 107/227/80
f 89/189/81 88/187/81 120/255/81 121/257/81
f 76/161/82 75/159/82 107/227/82 108/229/82
f 90/191/83 89/189/83 121/257/83 122/259/83
f 77/163/84 76/161/84 108/229/84 109/231/84
f 91/193/85 90/191/85 122/259/85 123/261/85
f 78/166/86 77/164/86 109/232/86 110/234/86
f 92/195/87 91/193/87 123/261/87 124/263/87
f 79/168/88 78/166/88 110/234/88 111/236/88
f 65/138/89 66/140/89 98/208/89 97/206/89
f 93/197/90 92/195/90 124/263/90 125/265/90
f 80/170/91 79/168/91 111/236/91 112/238/91
f 67/142/92 65/138/92 97/206/92 99/210/92
f 94/200/93 93/198/93 125/266/93 126/268/93
f 81/172/94 80/170/94 112/238/94 113/240/94
f 68/144/95 67/142/95 99/210/95 100/212/95
f 95/202/96 94/200/96 126/268/96 127/270/96
f 82/174/97 81/172/97 113/240/97 114/242/97
f 69/147/98 68/144/98 100/212/98 101/215/98
