# Blender 3.3.6
# www.blender.org
mtllib Invitation.mtl
o Cube
v -0.196641 -1.068195 0.813092
v -0.017076 1.107009 0.815451
v -0.163270 -1.035976 -0.771350
v -0.017076 1.107009 -0.834377
v -0.192773 -1.070159 0.813143
v -0.012739 1.107009 0.815451
v -0.151866 -1.036103 -0.771350
v -0.012739 1.107009 -0.834377
v -0.036366 -0.322693 -0.834377
v -0.006881 0.121406 0.815451
v -0.031957 -0.322910 -0.834377
v -0.002666 0.120386 0.815451
v -0.018135 0.706850 -0.834377
v -0.030053 0.300956 0.815451
v -0.013844 0.705198 -0.834377
v -0.025673 0.302362 0.815451
v -0.148451 -1.056469 -0.129664
v -0.065153 -0.764737 0.819862
v -0.061875 -0.767861 0.819887
v -0.142697 -1.059184 -0.124927
vn -0.9164 0.3980 -0.0419
vn 0.9929 -0.1186 -0.0127
vn -1.0000 -0.0041 0.0054
vn 1.0000 0.0040 -0.0053
vn -0.9999 0.0116 -0.0022
vn 0.9999 -0.0116 0.0022
vn -0.9926 0.1209 0.0147
vn 0.9164 -0.3978 0.0443
vt 0.995406 0.009150
vt 0.995406 0.997101
vt 0.005230 0.009150
vt 0.005230 0.997101
vt 0.005230 0.009150
vt 0.005230 0.997101
vt 0.995406 0.009150
vt 0.995406 0.997101
vt 0.005230 0.336747
vt 0.995406 0.549040
vt 0.995406 0.344923
vt 0.005230 0.544741
vt 0.005230 0.820303
vt 0.995406 0.642583
vt 0.995406 0.819565
vt 0.005230 0.640401
vt 0.429442 0.009150
vt 0.995406 0.162724
vt 0.005230 0.162773
vt 0.534911 0.009150
s 0
usemtl Material.001
f 7/7/2 11/11/2 12/12/2 19/19/2 20/20/2
f 12/12/4 11/11/4 15/15/4 16/16/4
f 16/16/6 15/15/6 8/8/6 6/6/6
f 20/20/8 19/19/8 5/5/8
usemtl Material.002
f 1/1/1 18/18/1 17/17/1
f 9/9/3 10/10/3 14/14/3 13/13/3
f 13/13/5 14/14/5 2/2/5 4/4/5
f 17/17/7 18/18/7 10/10/7 9/9/7 3/3/7
